<?xml version="1.0" encoding="utf-8"?>
<!-- Generator: Adobe Illustrator 16.0.0, SVG Export Plug-In . SVG Version: 6.00 Build 0)  -->
<!DOCTYPE svg PUBLIC "-//W3C//DTD SVG 1.1//EN" "http://www.w3.org/Graphics/SVG/1.1/DTD/svg11.dtd">
<svg version="1.1" id="Capa_1" xmlns="http://www.w3.org/2000/svg" xmlns:xlink="http://www.w3.org/1999/xlink" x="0px" y="0px"
	 width="512px" height="512px" viewBox="0 0 512 512" enable-background="new 0 0 512 512" xml:space="preserve">
<g>
	<g>
		<path fill="#F3F3F3" d="M77.295,240.082l-0.36-0.971l1.385-0.513l-0.097-0.071c12.833-17.46,23.403-32.198,31.896-44.042
			c23.71-33.063,32.585-45.429,37.954-44.177c3.907,0.914,5.205,8.814,7.561,23.158c1.642,9.995,3.685,22.435,7.366,37.419
			l0.123,0.502l-0.502,0.124c-9.143,2.24-17.818,5.66-26.208,8.966c-8.754,3.451-17.806,7.02-27.54,9.331
			c-10.774,2.558-20.068,6.006-29.905,9.654L77.295,240.082z M147.306,151.255c-4.913,0-15.05,14.136-36.346,43.833
			c-8.313,11.591-18.615,25.956-31.08,42.931c9.4-3.485,18.385-6.756,28.751-9.218c9.664-2.295,18.681-5.85,27.401-9.288
			c8.269-3.259,16.813-6.627,25.838-8.883c-3.612-14.8-5.632-27.097-7.259-36.999c-2.131-12.983-3.541-21.561-6.775-22.317
			C147.667,151.275,147.489,151.255,147.306,151.255z"/>
	</g>
	<g>
		<path fill="#F3F3F3" d="M93.14,235.387l-1.152-1.159c-3.35-3.387-4.736-4.789-8.012-4.789v-1.034c3.708,0,5.393,1.703,8.747,5.095
			l1.148,1.155L93.14,235.387z"/>
	</g>
	<g>
		<path fill="#F3F3F3" d="M95.111,232.013c-0.849-0.607-1.667-1.332-2.458-2.033c-1.723-1.525-3.502-3.105-5.741-3.601l0.225-1.01
			c2.499,0.555,4.382,2.223,6.202,3.836c0.806,0.716,1.568,1.392,2.373,1.965L95.111,232.013z"/>
	</g>
	<g>
		<path fill="#F3F3F3" d="M156.685,212.736l-0.003-0.007c-1.109-2.587-2.256-5.262-4.112-7.488l0.795-0.662
			c1.953,2.342,3.129,5.088,4.268,7.743L156.685,212.736z"/>
	</g>
	<g>
		<path fill="#F3F3F3" d="M152.967,205.045v-1.035c1.212,0,2.439-0.467,3.735-0.961c0.988-0.377,2.01-0.766,3.041-0.938l0.169,1.021
			c-0.929,0.154-1.856,0.508-2.839,0.883C155.743,204.521,154.37,205.045,152.967,205.045z"/>
	</g>
	<g>
		<path fill="#F3F3F3" d="M109.646,189.735l-1.025-0.145c0.049-0.344,0.072-0.701,0.072-1.093c0-1.149-0.212-2.387-0.417-3.584
			c-0.208-1.209-0.422-2.459-0.422-3.636h1.034c0,1.089,0.199,2.242,0.407,3.461c0.214,1.24,0.433,2.522,0.433,3.759
			C109.729,188.938,109.702,189.343,109.646,189.735z"/>
	</g>
	<g>
		<path fill="#F3F3F3" d="M105.395,186.364l-0.147-1.024c0.927-0.133,1.823-0.315,2.688-0.492c1.66-0.338,3.23-0.658,5.009-0.658
			v1.035c-1.673,0-3.193,0.31-4.804,0.637C107.263,186.041,106.352,186.227,105.395,186.364z"/>
	</g>
	<g>
		<path fill="#F3F3F3" d="M169.165,192.43c-1.069-0.427-1.788-1.25-2.483-2.045c-0.644-0.736-1.252-1.431-2.091-1.767l0.383-0.959
			c1.069,0.426,1.791,1.249,2.486,2.044c0.645,0.737,1.252,1.431,2.089,1.767L169.165,192.43z"/>
	</g>
	<g>
		<path fill="#F3F3F3" d="M167.699,201.517c-0.05-0.69-0.077-1.412-0.077-2.143c0-5.037,1.204-9.927,2.382-14.046l0.994,0.284
			c-1.157,4.051-2.341,8.854-2.341,13.762c0,0.707,0.025,1.402,0.074,2.067L167.699,201.517z"/>
	</g>
	<g>
		<path fill="#F3F3F3" d="M102.765,218.989c-1.136,0-1.71-1.049-1.71-3.114c0-0.365,0.015-0.739,0.031-1.119
			c0.016-0.373,0.032-0.748,0.032-1.122c0-0.551-0.036-0.99-0.114-1.381l1.013-0.204c0.094,0.46,0.136,0.964,0.136,1.585
			c0,0.388-0.018,0.778-0.034,1.166c-0.014,0.364-0.03,0.724-0.03,1.075c0,0.625,0.065,2.078,0.677,2.078
			c0.47,0,1.21-0.411,1.861-0.773c0.375-0.208,0.739-0.409,1.063-0.549l0.408,0.951c-0.297,0.127-0.627,0.312-0.968,0.502
			C104.329,218.528,103.503,218.989,102.765,218.989z"/>
	</g>
	<g>
		<path fill="#F3F3F3" d="M107.328,221.703c-0.469-1.033-0.998-2.042-1.509-3.019c-0.519-0.991-1.056-2.016-1.54-3.079l0.943-0.428
			c0.47,1.036,0.999,2.048,1.512,3.026c0.517,0.989,1.054,2.012,1.537,3.072L107.328,221.703z"/>
	</g>
	<g>
		<path fill="#F3F3F3" d="M110.762,218.301c-0.733,0-1.365-0.367-1.783-1.034l0.878-0.547c0.23,0.368,0.526,0.546,0.905,0.546
			c0.548,0,1.75-0.501,1.75-1.991c0-1.069-0.575-2.212-1.431-2.212l-0.206,0.023c-0.481,0.054-1.375,0.154-1.924,0.154
			c-1.732,0-2.61-0.739-3.354-2.821l0.973-0.348c0.657,1.838,1.24,2.134,2.381,2.134c0.49,0,1.38-0.099,1.809-0.147
			c0.178-0.02,0.298-0.031,0.32-0.031c1.544,0,2.466,1.652,2.466,3.248C113.546,217.34,111.886,218.301,110.762,218.301z"/>
	</g>
	<g>
		<path fill="#F3F3F3" d="M106.395,211.231l-0.622-0.828c1.134-0.85,2.081-1.248,2.979-1.248v1.035
			C108.099,210.191,107.328,210.531,106.395,211.231z"/>
	</g>
	<g>
		<path fill="#F3F3F3" d="M113.281,208.802c-0.413,0-0.753-0.204-1.015-0.499l-0.618,0.371c-0.221-0.371-0.338-0.788-0.338-1.208
			c0-1.063,0.747-1.928,1.666-1.928c0.975,0,1.654,0.97,1.654,1.841C114.629,208.269,113.943,208.802,113.281,208.802z
			 M112.685,206.88c0.13,0.522,0.419,0.886,0.596,0.886c0.151,0,0.314-0.121,0.314-0.387c0-0.363-0.287-0.806-0.62-0.806
			c-0.216,0-0.392,0.15-0.502,0.36L112.685,206.88z"/>
	</g>
	<g>
		<path fill="#F3F3F3" d="M337.725,223.081l-0.039-0.284C323.341,120.825,318.801,88.55,317.198,83.526
			c-0.106,0.479-0.217,1.116-0.314,1.672c-0.325,1.875-0.692,3.999-1.434,5.097l-0.859-0.579c0.619-0.914,0.982-3.01,1.275-4.694
			c0.382-2.208,0.498-3.102,1.289-3.11c1.711,0.027,2.315,3.972,21.554,140.74l0.039,0.285L337.725,223.081z"/>
	</g>
	<g>
		<path fill="#F3F3F3" d="M275.57,170.521l-0.308-0.987c11.021-3.436,22.483-4.887,34.619-6.424
			c13.168-1.666,26.783-3.39,40.981-7.816c0.881-0.274,1.951-0.623,2.288-0.732l0.229-0.06c54.883-3.813,61.505-4.274,62.359-4.315
			v-0.017c1.806-0.038,3.634,0.488,5.403,0.994c1.357,0.39,2.762,0.792,4.136,0.934l-0.106,1.03
			c-1.465-0.152-2.913-0.567-4.315-0.968c-1.773-0.507-3.44-0.982-5.098-0.954c-0.201,0.014-59.943,4.165-62.243,4.325l-0.046,0.014
			c-0.338,0.112-1.415,0.462-2.301,0.738c-14.284,4.454-27.944,6.183-41.156,7.855C297.923,165.666,286.502,167.112,275.57,170.521z
			"/>
	</g>
	<g>
		<path fill="#F3F3F3" d="M423.348,152.719c-2.236-0.493-3.86-2.07-5.434-3.597c-0.894-0.868-1.818-1.766-2.822-2.414l0.561-0.869
			c1.089,0.704,2.054,1.638,2.981,2.54c1.536,1.491,2.988,2.899,4.937,3.329L423.348,152.719z"/>
	</g>
	<g>
		<path fill="#F3F3F3" d="M415.708,155.657l-0.635-0.816c0.779-0.607,1.663-1.06,2.693-1.381c0.957-0.298,1.938-0.456,2.89-0.609
			c0.933-0.149,1.897-0.304,2.817-0.591c0.37-0.116,0.709-0.245,1.035-0.393l0.426,0.942c-0.364,0.166-0.741,0.31-1.154,0.438
			c-0.989,0.31-1.99,0.47-2.96,0.626c-0.956,0.154-1.86,0.298-2.745,0.575C417.151,154.736,416.4,155.12,415.708,155.657z"/>
	</g>
	<g>
		<path fill="#F3F3F3" d="M323.458,90.708c-0.661-1.458-1.81-2.457-3.023-3.516c-1.244-1.083-2.529-2.205-3.285-3.866l0.943-0.428
			c0.661,1.457,1.809,2.457,3.022,3.515c1.243,1.084,2.529,2.206,3.284,3.868L323.458,90.708z"/>
	</g>
	<g>
		<path fill="#F3F3F3" d="M367.611,172.093c-2.183,0-4.618-1.009-6.938-2.917c-2.766-2.275-4.996-5.491-5.966-8.604
			c-0.006-0.012-0.03-0.103-0.07-0.259c-0.748-2.847-1.395-5.151-1.923-6.847l-0.136-0.427c-4.932-15.83-6.258-20.083-27.016-22.587
			l0.125-1.027c21.42,2.584,22.919,7.388,27.88,23.305l0.133,0.428c0.533,1.711,1.184,4.03,1.938,6.893l0.057,0.224
			c0.911,2.917,3.018,5.95,5.635,8.103c2.634,2.165,5.377,3.073,7.587,2.528c1.608-7.543,10.697-45.015,34.385-55.98l0.435,0.939
			c-23.293,10.783-32.258,47.962-33.818,55.306c-0.076,0.356-0.118,0.552-0.407,0.643
			C368.907,172.001,368.271,172.093,367.611,172.093z"/>
	</g>
	<g>
		<path fill="#F3F3F3" d="M392.006,165.297c-0.248,0-0.446-0.306-1.388-1.761c-21.828-33.688-45.823-49.588-67.568-44.772
			l-0.223-1.011c22.197-4.916,46.578,11.145,68.659,45.221c0.304,0.469,0.578,0.896,0.755,1.155
			c3.691-1.851,14.065-17.074,22.45-29.378c4.42-6.486,8.595-12.613,11.338-16.136l0.815,0.636
			c-2.723,3.496-6.889,9.61-11.298,16.082c-11.475,16.837-19.862,28.838-23.316,29.916
			C392.141,165.275,392.072,165.297,392.006,165.297z"/>
	</g>
	<g>
		<path fill="#F3F3F3" d="M363.861,118.476c-0.728,0-1.456-0.113-1.939-0.366c-0.348-0.182-0.571-0.429-0.666-0.732
			c-0.08-0.252-0.104-0.529-0.128-0.822c-0.021-0.282-0.048-0.574-0.123-0.818l0.985-0.308c0.11,0.353,0.142,0.717,0.17,1.039
			c0.019,0.235,0.037,0.457,0.082,0.601c0.005,0.012,0.04,0.063,0.16,0.125c0.639,0.334,2.094,0.309,2.877,0.064
			c0.766-0.239,1.27-0.666,1.497-1.269c0.17-0.457,0.18-1.032,0.021-1.539c-0.33-1.058-1.451-1.649-2.636-2.275
			c-1.354-0.713-2.752-1.45-3.229-2.985c-0.601-1.923,0.44-4.03,2.272-4.602c0.654-0.205,1.352-0.2,2.079,0.015l-0.29,0.992
			c-0.529-0.156-1.025-0.161-1.481-0.019c-1.272,0.397-2.019,1.942-1.594,3.307c0.352,1.127,1.505,1.735,2.724,2.377
			c1.321,0.696,2.686,1.416,3.144,2.882c0.228,0.731,0.213,1.537-0.043,2.212c-0.236,0.629-0.805,1.47-2.154,1.89
			C365.12,118.391,364.491,118.476,363.861,118.476z"/>
	</g>
	<g>
		<path fill="#F3F3F3" d="M371.06,114.399c-0.338-1.081-0.47-2.31-0.6-3.496c-0.125-1.175-0.258-2.389-0.582-3.438
			c-0.109-0.35-0.238-0.673-0.385-0.962l0.923-0.468c0.174,0.341,0.322,0.718,0.449,1.122c0.356,1.145,0.492,2.411,0.624,3.633
			c0.128,1.191,0.249,2.316,0.557,3.301L371.06,114.399z"/>
	</g>
	<g>
		<path fill="#F3F3F3" d="M379.395,114.011c-0.28-0.902-0.4-1.948-0.518-2.959c-0.105-0.935-0.207-1.819-0.422-2.512
			c-0.326-1.046-0.92-1.444-1.749-1.185c-0.422,0.131-0.706,0.443-0.868,0.953c-0.072,0.225-0.115,0.471-0.139,0.729
			c1.383,4.445,1.063,4.543,0.584,4.692c-0.559,0.175-0.854-0.417-1.167-1.418c-0.316-1.014-0.515-2.146-0.464-3.155
			c-0.109-0.351-0.225-0.7-0.34-1.047c-0.125-0.376-0.247-0.75-0.364-1.124c-0.288-0.921-0.466-1.633-0.573-2.305l1.022-0.165
			c0.1,0.622,0.265,1.289,0.538,2.162c0.067,0.22,0.14,0.438,0.21,0.659c0.279-0.452,0.687-0.793,1.253-0.97
			c1.083-0.338,2.455-0.026,3.044,1.865c0.244,0.787,0.351,1.717,0.463,2.703c0.11,0.963,0.225,1.959,0.479,2.769L379.395,114.011z"
			/>
	</g>
	<g>
		<path fill="#F3F3F3" d="M389.255,110.743c-0.639-1.342-1.482-2.814-2.3-4.237c-0.824-1.435-1.676-2.917-2.327-4.29l0.933-0.444
			c0.636,1.335,1.477,2.801,2.291,4.219c0.827,1.441,1.682,2.929,2.336,4.307L389.255,110.743z"/>
	</g>
	<g>
		<path fill="#F3F3F3" d="M385.007,110.388l-0.952-0.409c1.646-3.824,4.233-6.5,6.74-8.911l0.719,0.745
			C388.98,104.249,386.578,106.738,385.007,110.388z"/>
	</g>
	<g>
		<path fill="#F3F3F3" d="M413.038,182.375c-0.423,0-0.824-0.068-1.193-0.204c-0.846-0.312-1.438-0.95-1.717-1.845
			c-0.514-1.646,0.303-3.833,2.335-4.468c0.499-0.154,1.046-0.202,1.617-0.146l-0.104,1.029c-0.436-0.043-0.84-0.009-1.205,0.105
			c-1.42,0.443-2.013,2.029-1.656,3.172c0.182,0.585,0.549,0.983,1.089,1.182c0.531,0.197,1.213,0.185,1.92-0.037
			c1.216-0.379,2.634-1.46,2.873-2.936l1.022,0.165c-0.312,1.921-2.026,3.272-3.587,3.758
			C413.951,182.3,413.483,182.375,413.038,182.375z"/>
	</g>
	<g>
		<path fill="#F3F3F3" d="M423.762,177.147c-0.447,0-0.873-0.162-1.242-0.478c-0.41-0.352-0.743-0.895-0.941-1.529
			c-0.013-0.042-0.026-0.086-0.038-0.128l-0.318,0.1c-0.818-2.632-0.404-4.417,1.139-4.899c0.746-0.231,1.57-0.16,2.26,0.196
			c0.771,0.397,1.327,1.097,1.615,2.023c0.338,1.077,0.249,2.275-0.239,3.205c-0.37,0.708-0.942,1.199-1.652,1.42
			C424.148,177.117,423.953,177.147,423.762,177.147z M421.878,173.25l0.633,0.188c-0.114,0.398-0.096,0.907,0.057,1.396
			c0.139,0.444,0.366,0.827,0.626,1.051c0.261,0.224,0.527,0.284,0.843,0.184c0.558-0.173,0.877-0.592,1.044-0.914
			c0.356-0.681,0.421-1.607,0.168-2.415c-0.204-0.657-0.585-1.145-1.102-1.411c-0.451-0.235-0.991-0.28-1.48-0.128
			C421.892,171.443,421.784,172.371,421.878,173.25z"/>
	</g>
	<g>
		<path fill="#F3F3F3" d="M430.886,176.604l-0.496-0.908l0.414-0.224c2.181-1.169,4.093-2.371,3.523-4.194
			c-0.186-0.602-0.605-0.686-1.463-0.809c-0.691-0.099-1.552-0.222-2.2-0.901c-0.077-0.078-0.138-0.181-0.174-0.292
			c-0.237-0.767,0.803-1.647,1.289-1.798l0.308,0.988c-0.146,0.045-0.434,0.318-0.552,0.5c0.396,0.324,0.922,0.399,1.475,0.478
			c0.856,0.123,1.917,0.274,2.306,1.524c0.87,2.791-2.074,4.37-4.022,5.414L430.886,176.604z"/>
	</g>
	<g>
		<path fill="#F3F3F3" d="M441.579,171.18l-0.914-0.481c0.385-0.733,1.56-2.967,1.044-4.614c-0.091-0.3-0.24-0.576-0.44-0.822
			l0.804-0.653c0.283,0.35,0.493,0.743,0.627,1.169C443.272,167.619,442.335,169.743,441.579,171.18z"/>
	</g>
	<g>
		<path fill="#F3F3F3" d="M438.723,168.616l-0.143-1.025c1.26-0.173,2.62-0.485,3.938-0.788c1.338-0.306,2.721-0.625,4.023-0.804
			l0.142,1.024c-1.258,0.174-2.618,0.486-3.933,0.789C441.41,168.119,440.024,168.437,438.723,168.616z"/>
	</g>
	<g>
		<path fill="#F3F3F3" d="M308.386,93.893c-0.784-0.545-1.281-1.247-1.761-1.926c-0.386-0.549-0.753-1.067-1.251-1.47l0.652-0.805
			c0.607,0.494,1.034,1.096,1.446,1.679c0.446,0.634,0.869,1.231,1.503,1.673L308.386,93.893z"/>
	</g>
	<g>
		<path fill="#F3F3F3" d="M302.979,106.746l-0.934-0.447c0.489-1.019,0.997-2.032,1.506-3.046c1.978-3.939,4.024-8.013,4.853-12.474
			l1.016,0.188c-0.854,4.605-2.933,8.746-4.944,12.75C303.969,104.726,303.464,105.732,302.979,106.746z"/>
	</g>
	<g>
		<path fill="#F3F3F3" d="M428.925,148.956c-1.346-1.489-2.737-3.029-3.852-4.655l0.854-0.585c1.076,1.569,2.444,3.083,3.766,4.546
			L428.925,148.956z"/>
	</g>
	<g>
		<path fill="#F3F3F3" d="M425.969,149.612l-0.878-0.543c0.424-0.689,0.846-1.378,1.264-2.063c1.856-3.037,3.611-5.906,5.643-8.722
			l0.84,0.605c-2.009,2.783-3.753,5.636-5.599,8.656C426.817,148.232,426.396,148.922,425.969,149.612z"/>
	</g>
	<g>
		<g>
			<path fill="#F3F3F3" d="M160.448,122.551c-0.03,0-0.058-0.001-0.087-0.002c-1.912-0.097-4.166-1.389-5.842-3.964l-0.308-0.017
				c0.007-0.137,0.022-0.275,0.042-0.413c-0.721-1.215-1.316-2.688-1.704-4.428c-2.046,3.767-5.333,6.871-10.492,7.381l-0.102-1.029
				c5.562-0.549,8.635-4.426,10.301-8.016c-0.178-1.335-0.24-2.803-0.158-4.406c0.549-10.906,1.793-10.972,2.273-10.972
				c0.002,0,0.006,0,0.009,0c0.469,0,1.109,0.334,1.251,3.229c0.125,2.592-0.311,7.682-2.311,12.233
				c0.267,1.793,0.755,3.322,1.378,4.596c0.247-0.505,0.582-0.977,0.989-1.388c0.878-0.884,1.946-1.373,2.962-1.312
				c2.865,0.146,3.574,4.719,3.495,6.277C162.046,122.296,160.987,122.551,160.448,122.551z M155.357,117.918
				c1.481,2.329,3.438,3.515,5.059,3.598c0.41,0.023,0.655-0.398,0.697-1.247c0.07-1.392-0.596-5.095-2.513-5.191
				c-0.698-0.034-1.516,0.34-2.178,1.005C155.902,116.607,155.531,117.252,155.357,117.918z M154.354,98.02
				c-0.368,0.93-0.919,3.67-1.223,9.688c-0.04,0.769-0.042,1.504-0.015,2.208C154.846,104.865,154.798,99.543,154.354,98.02z"/>
		</g>
		<g>
			<path fill="#F3F3F3" d="M197.189,119.45c-0.03,0-0.058,0-0.089-0.001c-2.109-0.107-4.287-1.583-5.824-3.949
				c-0.004-0.005-0.006-0.01-0.01-0.015l-0.316-0.017c0.006-0.141,0.022-0.284,0.043-0.425c-0.633-1.073-1.277-2.528-1.701-4.423
				c-2.045,3.77-5.334,6.878-10.497,7.388l-0.102-1.029c5.564-0.55,8.638-4.431,10.304-8.021c-0.176-1.295-0.246-2.758-0.163-4.4
				c0.551-10.907,1.795-10.973,2.274-10.973c0.003,0,0.006,0,0.009,0c0.47,0,1.11,0.336,1.251,3.229
				c0.128,2.595-0.311,7.693-2.315,12.246c0.284,1.928,0.808,3.444,1.372,4.604c0.248-0.512,0.586-0.99,1-1.409
				c0.878-0.884,1.949-1.366,2.963-1.311c2.863,0.145,3.573,4.717,3.493,6.277c-0.03,0.639-0.169,1.15-0.409,1.524
				C198.18,119.202,197.726,119.45,197.189,119.45z M192.086,114.846c0.02,0.031,0.039,0.059,0.056,0.089
				c1.358,2.089,3.231,3.39,5.01,3.479c0.213,0.007,0.339-0.056,0.452-0.229c0.097-0.151,0.218-0.45,0.247-1.016
				c0.069-1.392-0.597-5.095-2.514-5.193c-0.702-0.032-1.516,0.341-2.177,1.007C192.632,113.515,192.259,114.17,192.086,114.846z
				 M191.091,94.919c-0.366,0.93-0.919,3.67-1.223,9.689c-0.038,0.78-0.042,1.518-0.016,2.212
				C191.583,101.769,191.536,96.443,191.091,94.919z"/>
		</g>
		<g>
			<path fill="#F3F3F3" d="M166.751,117.176c-0.074,0-0.152-0.003-0.231-0.006l0.054-1.034c1.109,0.054,1.928-0.429,2.784-0.943
				c0.559-0.337,1.137-0.684,1.804-0.87l0.278,0.997c-0.533,0.147-1.027,0.445-1.549,0.76
				C169.034,116.594,168.07,117.176,166.751,117.176z"/>
		</g>
		<g>
			<path fill="#F3F3F3" d="M206.608,112.076c-0.106,0-0.212-0.002-0.317-0.008c-0.46-0.023-0.886-0.095-1.301-0.222l0.301-0.99
				c0.334,0.102,0.678,0.159,1.051,0.179c1.079,0.056,2.179-0.23,3.346-0.531c0.535-0.138,1.07-0.276,1.604-0.381l0.198,1.016
				c-0.513,0.101-1.028,0.235-1.544,0.368C208.857,111.787,207.736,112.076,206.608,112.076z"/>
		</g>
		<g>
			<path fill="#F3F3F3" d="M222.969,115.49c-0.079,0-0.157-0.002-0.235-0.006c-1.49-0.076-2.825-0.918-3.762-2.372
				c-0.8-1.244-1.236-2.845-1.162-4.284c0.09-1.787,1.235-4.316,3.076-4.229c0.794,0.042,1.393,0.508,1.599,1.248
				c0.028,0.102,0.041,0.208,0.035,0.316c-0.018,0.367-0.237,0.725-0.601,0.986c-0.32,0.23-0.699,0.355-1.044,0.334l0.055-1.034
				c0.251,0.026,0.544-0.232,0.559-0.338c-0.032-0.102-0.128-0.453-0.654-0.479c-1.077-0.037-1.923,1.903-1.991,3.249
				c-0.063,1.229,0.311,2.602,1,3.67c0.751,1.167,1.796,1.841,2.943,1.899c1.869,0.088,3.924-1.298,4.656-3.173l0.964,0.376
				C227.537,113.877,225.231,115.49,222.969,115.49z"/>
		</g>
		<g>
			<path fill="#F3F3F3" d="M237.294,113.325c-0.078,0-0.157-0.001-0.239-0.006c-1.976-0.1-4.081-1.519-4.681-3.458l-0.599,0.069
				c-0.035-0.3-0.044-0.6-0.03-0.894c0.164-3.237,3.193-5.361,5.789-5.213c2.696,0.136,3.985,2.596,3.867,4.957
				C241.289,111,239.956,113.325,237.294,113.325z M232.83,108.606l0.416,0.021c-0.098,1.946,1.996,3.565,3.862,3.659
				c2.41,0.117,3.19-2.181,3.26-3.56c0.09-1.79-0.774-3.765-2.885-3.871C235.506,104.753,233.217,106.252,232.83,108.606z"/>
		</g>
		<g>
			<path fill="#F3F3F3" d="M247.075,112.608c-0.058,0-0.116-0.002-0.172-0.004l0.052-1.033c0.519,0.024,1.247-0.132,1.801-0.392
				c0.269-0.126,0.899-0.473,0.921-0.934c0.06-1.16-0.93-1.734-2.566-2.54c-1.606-0.793-3.426-1.691-3.317-3.822
				c0.033-0.655,0.489-0.868,0.849-0.847c0.269,0.013,0.541,0.129,0.855,0.263c0.309,0.131,0.66,0.281,0.951,0.295l-0.054,1.033
				c-0.472-0.024-0.933-0.22-1.301-0.376c-0.077-0.033-0.175-0.075-0.265-0.11c0.061,1.224,1.095,1.822,2.74,2.633
				c1.519,0.75,3.239,1.598,3.142,3.52c-0.035,0.729-0.574,1.375-1.514,1.818C248.539,112.425,247.742,112.608,247.075,112.608z"/>
		</g>
		<g>
			<path fill="#F3F3F3" d="M263.082,112.679c-0.083,0-0.165-0.002-0.249-0.006c-1.413-0.071-2.795-0.81-3.793-2.026
				c-0.813-0.995-1.307-2.22-1.4-3.446c-0.134,0.203-0.255,0.411-0.362,0.625l-0.927-0.455c1.234-2.52,4.317-4.375,7.004-4.25
				c1.234,0.063,2.362,0.558,3.178,1.395c0.859,0.883,1.296,2.088,1.23,3.393c-0.066,1.314-0.575,2.525-1.433,3.409
				S264.328,112.679,263.082,112.679z M258.737,105.953c-0.037,0.197-0.063,0.398-0.073,0.603c-0.061,1.195,0.369,2.448,1.178,3.435
				c0.811,0.992,1.923,1.592,3.042,1.649c1.054,0.045,1.99-0.307,2.704-1.043c0.681-0.704,1.088-1.677,1.142-2.741
				c0.052-1.029-0.273-1.934-0.939-2.619c-0.632-0.65-1.517-1.034-2.487-1.083C261.764,104.079,260.024,104.807,258.737,105.953z"/>
		</g>
		<g>
			<path fill="#F3F3F3" d="M273.507,113.574c-0.392-0.544-0.76-1.107-1.13-1.671c-1.454-2.214-2.827-4.308-5.511-5.223l0.334-0.979
				c3.02,1.031,4.556,3.372,6.043,5.635c0.359,0.552,0.721,1.102,1.104,1.634L273.507,113.574z"/>
		</g>
		<g>
			<path fill="#F3F3F3" d="M199.366,107.732c-0.066,0-0.134-0.001-0.197-0.005c-0.681-0.034-1.253-0.271-1.654-0.683
				c-0.381-0.392-0.575-0.905-0.547-1.449c0.042-0.829,0.581-1.636,1.101-2.416c0.451-0.679,0.921-1.38,0.95-1.955
				c0.038-0.736-0.917-1.418-1.725-1.458c-1.112-0.042-2.099,1.015-2.144,1.749c0.02,0.003,0.061,0.012,0.129,0.016l-0.052,1.033
				c-0.379-0.019-0.669-0.139-0.867-0.357c-0.121-0.135-0.263-0.371-0.245-0.735c0.067-1.31,1.534-2.827,3.231-2.737
				c1.335,0.067,2.775,1.169,2.707,2.543c-0.044,0.858-0.593,1.681-1.125,2.477c-0.442,0.663-0.9,1.349-0.928,1.893
				c-0.013,0.253,0.078,0.493,0.255,0.675c0.215,0.223,0.549,0.352,0.965,0.373c1.149,0.062,2.78-0.592,3.907-1.087l0.415,0.947
				C202.278,107.108,200.682,107.732,199.366,107.732z"/>
		</g>
		<g>
			<path fill="#F3F3F3" d="M255.54,101.621c-0.172,0-0.339-0.004-0.503-0.013c-4.096-0.207-5.243-3.707-5.541-5.125
				c-0.431,0.188-1.106,0.632-1.872,1.325l-0.694-0.768c0.722-0.652,2.064-1.723,3.013-1.69l0.436,0.022l0.054,0.452
				c0.09,0.759,0.737,4.554,4.656,4.751c0.547,0.028,1.148,0.004,1.789-0.07l0.119,1.027
				C256.487,101.591,256,101.621,255.54,101.621z"/>
		</g>
		<g>
			<path fill="#F3F3F3" d="M176.093,119.897c-0.014,0-0.027,0-0.042-0.002c-1.105-0.056-1.179-1.55-1.288-3.812
				c-0.133-2.739-0.314-6.49-2.454-7.871c-1.297-0.835-3.256-0.742-5.826,0.278l-0.38-0.963c2.897-1.148,5.174-1.209,6.765-0.184
				c0.921,0.595,1.542,1.492,1.963,2.536c0.124-2.675-0.131-5.585-0.375-8.4c-0.209-2.409-0.409-4.685-0.317-6.454
				c0.165-3.292,3.168-5.441,8.925-6.385c4.958-0.814,10.798-0.52,12.718-0.422l1.06,0.054c3.414,0.171,7.663,0.385,11.453-0.061
				c11.556-1.36,22.848-2.405,33.769-3.417c10.186-0.943,20.72-1.918,31.305-3.137l0.117,1.027
				c-10.595,1.221-21.135,2.196-31.329,3.14c-10.912,1.011-22.198,2.056-33.741,3.415c-3.878,0.456-8.174,0.239-11.625,0.065
				l-1.061-0.053c-1.891-0.095-7.649-0.386-12.498,0.409c-5.211,0.855-7.922,2.677-8.061,5.417c-0.086,1.697,0.11,3.938,0.316,6.311
				c0.239,2.756,0.512,5.879,0.374,8.656c-0.071,1.38,0.289,3.403,0.606,5.187c0.464,2.599,0.665,3.872,0.188,4.411
				C176.509,119.807,176.311,119.897,176.093,119.897z"/>
		</g>
		<g>
			<path fill="#F3F3F3" d="M129.229,122c-0.25,0-0.502-0.006-0.759-0.02l0.051-1.033c1.509,0.076,2.875-0.103,4.324-0.291
				c1.434-0.188,2.913-0.38,4.511-0.298l-0.052,1.033c-1.502-0.077-2.874,0.102-4.325,0.291C131.778,121.84,130.542,122,129.229,122
				z"/>
		</g>
		<g>
			<path fill="#F3F3F3" d="M143.033,132.036l-0.049-1.033c16.571-0.776,32.442-3.116,49.245-5.594
				c4.704-0.693,9.456-1.394,14.28-2.067c13.64-1.906,28.425-2.257,42.723-2.598c19.892-0.473,38.678-0.92,50.804-5.593l0.371,0.966
				c-12.292,4.735-31.168,5.185-51.15,5.661c-14.27,0.338-29.024,0.69-42.605,2.587c-4.822,0.673-9.571,1.374-14.271,2.067
				C175.55,128.915,159.655,131.258,143.033,132.036z"/>
		</g>
		<g>
			<path fill="#F3F3F3" d="M193.761,144.936l-0.231-1.008c1.946-0.383,4.838-0.953,4.929-2.749l0.002-0.099
				c-0.002-1.282-1.217-1.509-3.794-1.692c-2.511-0.179-5.639-0.401-5.472-3.72c0.173-3.421,4.536-3.997,8.042-4.46
				c0.979-0.129,1.903-0.252,2.636-0.422l0.234,1.009c-0.782,0.181-1.73,0.306-2.734,0.438c-3.288,0.434-7.015,0.926-7.145,3.487
				c-0.109,2.151,1.632,2.431,4.513,2.635c2.226,0.158,4.75,0.337,4.754,2.723l-0.004,0.149
				C199.361,143.833,195.993,144.497,193.761,144.936z"/>
		</g>
		<g>
			<path fill="#F3F3F3" d="M208.831,140.643l-1.003-0.254c0.354-1.4-0.188-2.724-0.761-4.126c-0.389-0.95-0.791-1.933-0.95-3.008
				l1.023-0.151c0.141,0.95,0.518,1.875,0.884,2.767C208.637,137.366,209.269,138.912,208.831,140.643z"/>
		</g>
		<g>
			<path fill="#F3F3F3" d="M224.015,137.784c-0.599-4.05-1.889-5.909-4.182-6.025c-2.38-0.122-4.003,2.264-4.12,4.541
				c-0.042,0.842-0.592,0.936-0.759,0.943c-1.279,0.05-3.329-3.489-3.595-5.278l1.024-0.151c0.217,1.471,1.598,3.603,2.311,4.229
				c0.227-2.711,2.224-5.47,5.19-5.317c3.731,0.188,4.728,4.032,5.153,6.906L224.015,137.784z"/>
		</g>
		<g>
			<path fill="#F3F3F3" d="M236.944,136.809c-0.061,0-0.124-0.001-0.184-0.005c-2.271-0.113-5.353-1.97-5.213-4.732
				c0.034-0.67,0.266-1.344,0.686-2l0.804,0.514l-0.193-0.213c1.268-1.147,3.197-1.802,5.025-1.708
				c2.415,0.122,4.098,1.595,4.005,3.5C241.765,134.267,239.449,136.809,236.944,136.809z M233.09,130.647
				c-0.313,0.498-0.486,0.994-0.509,1.477c-0.104,2.058,2.478,3.559,4.231,3.647c1.924,0.093,3.944-2.011,4.027-3.659
				c0.065-1.328-1.178-2.322-3.023-2.415c-1.542-0.073-3.224,0.488-4.279,1.441L233.09,130.647z"/>
		</g>
		<g>
			<path fill="#F3F3F3" d="M248.231,136.278c-1.541-0.708-2.667-1.733-3.858-2.818c-0.823-0.75-1.674-1.526-2.696-2.21l0.577-0.859
				c1.084,0.727,1.963,1.529,2.816,2.304c1.13,1.03,2.197,2.002,3.591,2.643L248.231,136.278z"/>
		</g>
		<g>
			<path fill="#F3F3F3" d="M169.554,118.789c-0.125-1.075-0.497-2.07-0.892-3.124c-0.333-0.887-0.678-1.805-0.872-2.795l1.016-0.201
				c0.179,0.908,0.507,1.784,0.824,2.632c0.4,1.065,0.813,2.167,0.953,3.369L169.554,118.789z"/>
		</g>
	</g>
	<path fill="none" stroke="#F3F3F3" stroke-width="1.0953" stroke-miterlimit="10" d="M244.242,195.801
		c-0.007,0.094-0.01,0.188-0.01,0.279c0,2.113,1.904,3.362,3.685,3.362c1.877,0,3.537-1.305,3.537-4.413
		c0-2.816-0.745-5.049-3.756-5.049c-0.915,0-1.815,0.312-2.42,0.993C244.131,192.263,244.375,194.083,244.242,195.801z"/>
	<g>
		<path fill="#F3F3F3" d="M241.151,216.521l-0.715-0.747c5.008-4.791,9.702-10.248,14.24-15.525
			c2.639-3.068,5.369-6.242,8.152-9.279l0.762,0.699c-2.772,3.024-5.495,6.191-8.13,9.254
			C250.907,206.219,246.197,211.695,241.151,216.521z"/>
	</g>
	<g>
		<path fill="#F3F3F3" d="M257.945,214.623c-1.929,0-2.991-1.416-2.991-3.987c0-0.568,0.054-1.196,0.158-1.815l0.75,0.125
			c0.254-1.122,1.063-2.438,3.65-2.438c1.794,0,2.822,1.24,2.822,3.401C262.335,212.552,260.407,214.623,257.945,214.623z
			 M256.131,212.009c0.259,1.049,0.867,1.578,1.814,1.578c2.101,0,3.354-1.87,3.354-3.678c0-1.571-0.602-2.367-1.787-2.367
			c-2.267,0-2.732,1.07-2.732,2.676c0,0.313,0.013,0.632,0.026,0.938c0.012,0.299,0.023,0.588,0.023,0.854H256.131z"/>
	</g>
	<g>
		<path fill="#F3F3F3" d="M211.009,172.218c-1.338-3.015-3.757-5.433-6.096-7.772l0.728-0.734l-0.365,0.366l0.369-0.363
			c2.406,2.407,4.892,4.894,6.31,8.083L211.009,172.218z"/>
	</g>
	<g>
		<path fill="#F3F3F3" d="M205.894,171.066l-0.547-0.877c0.871-0.544,1.824-1.063,2.747-1.564c2.051-1.115,4.171-2.269,5.783-3.879
			l0.731,0.731c-1.718,1.716-3.905,2.906-6.02,4.057C207.636,170.051,206.739,170.54,205.894,171.066z"/>
	</g>
	<g>
		<path fill="#F3F3F3" d="M283.643,63.775c-0.979-0.206-2.041-0.226-3.07-0.246c-1.355-0.026-2.637-0.051-3.774-0.466
			c-1.002-0.363-1.845-1.079-2.375-2.014c-0.514-0.909-0.646-1.878-0.362-2.659c0.245-0.674,0.719-1.281,1.222-1.925
			c0.519-0.664,1.055-1.35,1.336-2.126c0.279-0.761,0.197-1.454-0.237-2.061c-0.347-0.482-0.928-0.907-1.556-1.136
			c-0.43-0.156-1.874-0.554-2.387,0.856c-0.085,0.313,0.271,1.75,0.927,1.989l-0.353,0.971c-0.768-0.279-1.18-1.108-1.357-1.579
			c-0.193-0.513-0.356-1.273-0.188-1.736c0.541-1.492,2.027-2.086,3.713-1.474c0.827,0.301,1.571,0.85,2.042,1.505
			c0.637,0.888,0.765,1.931,0.368,3.017c-0.336,0.929-0.951,1.716-1.493,2.409c-0.449,0.576-0.875,1.122-1.063,1.642
			c-0.179,0.489-0.069,1.16,0.29,1.796c0.401,0.709,1.068,1.274,1.827,1.551c0.978,0.354,2.175,0.379,3.443,0.403
			c1.074,0.02,2.187,0.042,3.262,0.269L283.643,63.775z"/>
	</g>
	<g>
		<path fill="#F3F3F3" d="M290.915,59.503c-2.08,0-4.172-0.1-6.061-0.786l0.354-0.973c2.1,0.764,4.578,0.738,6.982,0.716
			c0.831-0.009,1.667-0.017,2.489,0.006l-0.028,1.034c-0.81-0.021-1.631-0.013-2.451-0.006
			C291.773,59.5,291.345,59.503,290.915,59.503z"/>
	</g>
	<g>
		<path fill="#F3F3F3" d="M291.103,62.887c-0.271-2.347-0.099-4.549,0.066-6.679c0.082-1.046,0.166-2.128,0.195-3.205l1.035,0.027
			c-0.031,1.105-0.116,2.199-0.198,3.259c-0.163,2.08-0.329,4.232-0.071,6.48L291.103,62.887z"/>
	</g>
	<g>
		<path fill="#F3F3F3" d="M304.284,70.964c-0.959,0-1.747-0.114-2.378-0.342c-0.88-0.321-1.468-0.906-1.7-1.691
			c-0.197-0.676-0.133-1.476,0.193-2.377c0.429-1.176,1.248-2.212,2.116-3.31c0.853-1.078,1.734-2.191,2.181-3.421
			c0.798-2.194-0.094-4.866-1.833-5.499c-0.81-0.295-1.8-0.175-2.94,0.356l-0.438-0.937c1.396-0.652,2.653-0.783,3.732-0.391
			c2.28,0.829,3.448,4.081,2.452,6.824c-0.504,1.387-1.439,2.567-2.341,3.709c-0.814,1.029-1.583,2.002-1.955,3.022
			c-0.247,0.68-0.309,1.278-0.173,1.731c0.137,0.471,0.484,0.802,1.062,1.011c1.162,0.424,3.154,0.368,5.915-0.168l0.196,1.015
			C306.764,70.809,305.407,70.964,304.284,70.964z"/>
	</g>
	<g>
		<path fill="#F3F3F3" d="M287.524,218.5c-0.756,0-1.027-0.952-1.178-1.78c-0.188-1.027-0.283-2.539-0.283-4.49
			c0-0.715,0.019-1.43,0.037-2.139c0.017-0.691,0.034-1.378,0.034-2.056c0-4.512-0.579-6.035-2.291-6.035
			c-1.153,0-2.687,0.226-4.038,0.425l-0.662,0.096l-0.146-1.024l0.654-0.096c1.39-0.204,2.963-0.436,4.191-0.436
			c3.07,0,3.325,3.344,3.325,7.07c0,0.686-0.018,1.381-0.034,2.081c-0.018,0.702-0.036,1.408-0.036,2.115
			c0,3.432,0.301,4.664,0.468,5.083c0.604-0.949,1.553-5.035,1.553-10.904l-0.001-1.538c0-9.132,0-12.912,15.222-12.912
			c3.182,0,9.052,0.401,12.629,3.084l-0.619,0.827c-2.475-1.854-6.739-2.876-12.01-2.876c-14.187,0-14.187,2.993-14.187,11.877
			l0.001,1.538C290.154,211.285,289.317,218.5,287.524,218.5z"/>
	</g>
	<g>
		<path fill="#F3F3F3" d="M303.044,217.012c-1.679,0-2.722-1.091-2.722-2.847c0-1.825,1.525-3.34,2.998-4.804
			c1.482-1.471,3.015-2.992,3.015-4.769c0-1.516-0.789-2.285-2.345-2.285c-2.115,0-3.521,1.412-3.521,1.985h-0.001
			c-0.007,0-0.044-0.038-0.07-0.047l0.053,1.04c-0.605,0-1.015-0.399-1.015-0.993c0-1.216,1.912-3.02,4.554-3.02
			c2.116,0,3.38,1.241,3.38,3.32c0,2.208-1.688,3.883-3.319,5.503c-1.386,1.376-2.693,2.675-2.693,4.07
			c0,0.826,0.291,1.812,1.687,1.812c0.909,0,2.098-0.343,3.247-0.675c1.2-0.348,2.443-0.707,3.47-0.707v1.035
			c-0.881,0-2.051,0.338-3.184,0.667C305.359,216.648,304.098,217.012,303.044,217.012z"/>
	</g>
	<path fill="none" stroke="#F3F3F3" stroke-width="1.0953" stroke-miterlimit="10" d="M255.966,153.386
		c-0.861-0.959-1.409-2.111-1.409-3.309c0-1.504,1.319-2.684,2.288-2.684c1.401,0,2.044,3.251,2.044,5.12
		c0,1.612-0.243,3.263-0.243,4.912c0,2.828,1.01,6.466,3.825,6.466c1.46,0,2.612-1.045,2.612-2.981c0-1.007-0.387-1.977-1.186-2.696
		C261.534,156.088,258.095,155.749,255.966,153.386z"/>
	<g>
		<path fill="#F3F3F3" d="M270.967,159.938h-1.034c0-2.666-0.793-5.604-2.358-8.734l0.926-0.463
			C270.137,154.017,270.967,157.111,270.967,159.938z"/>
	</g>
	<g>
		<path fill="#F3F3F3" d="M274.933,156.663c-3.027,0-5.491-0.617-8.509-2.124l0.464-0.925c2.862,1.431,5.192,2.015,8.045,2.015
			V156.663z"/>
	</g>
	<path fill="none" stroke="#F3F3F3" stroke-width="1.0953" stroke-miterlimit="10" d="M273.554,146.835
		c-0.542-0.846-1.053-1.865-1.053-2.845c0-1.356,1.019-2.368,2.375-2.368c5.411,0,1.911,13.064,8.691,13.064
		c1.096,0,1.572-0.635,1.572-1.522c0-0.978-0.657-2.108-1.584-2.537C280.471,149.204,275.892,150.468,273.554,146.835z"/>
	<path opacity="0.6" fill="#EEEEEE" d="M81.307,271.84c0,5.14,33.463,9.309,74.743,9.309c41.279,0,74.744-4.169,74.744-9.309
		c0-5.145-33.465-9.312-74.744-9.312C114.77,262.528,81.307,266.695,81.307,271.84z"/>
	<g>
		<linearGradient id="SVGID_1_" gradientUnits="userSpaceOnUse" x1="117.1318" y1="247.3545" x2="174.0298" y2="242.1819">
			<stop  offset="0" style="stop-color:#F2F9FF"/>
			<stop  offset="1" style="stop-color:#A8AEC8"/>
		</linearGradient>
		<path fill="url(#SVGID_1_)" d="M162.171,220.087c-10.571,0-19.138,10.374-19.138,23.173c0,12.797,8.567,23.174,19.138,23.174
			c10.57,0,19.139-10.377,19.139-23.174C181.31,230.461,172.742,220.087,162.171,220.087z M166.091,260.521
			c-7.768,0-14.066-7.624-14.066-17.03c0-9.406,6.299-17.032,14.066-17.032c7.768,0,14.066,7.625,14.066,17.032
			C180.157,252.896,173.859,260.521,166.091,260.521z"/>
	</g>
	<g>
		<defs>
			<filter id="Adobe_OpacityMaskFilter" filterUnits="userSpaceOnUse" x="148.076" y="221.031" width="27.59" height="43.941">
				<feFlood  style="flood-color:white;flood-opacity:1" result="back"/>
				<feBlend  in="SourceGraphic" in2="back" mode="normal"/>
			</filter>
		</defs>
		<mask maskUnits="userSpaceOnUse" x="148.076" y="221.031" width="27.59" height="43.941" id="SVGID_2_">
			<g filter="url(#Adobe_OpacityMaskFilter)">
				<defs>
					<filter id="Adobe_OpacityMaskFilter_1_" filterUnits="userSpaceOnUse" x="148.076" y="221.031" width="27.59" height="43.941">
						<feFlood  style="flood-color:white;flood-opacity:1" result="back"/>
						<feBlend  in="SourceGraphic" in2="back" mode="normal"/>
					</filter>
				</defs>
				<mask maskUnits="userSpaceOnUse" x="148.076" y="221.031" width="27.59" height="43.941" id="SVGID_2_">
					<g filter="url(#Adobe_OpacityMaskFilter_1_)">
					</g>
				</mask>
				<linearGradient id="SVGID_3_" gradientUnits="userSpaceOnUse" x1="117.125" y1="247.2764" x2="174.021" y2="242.104">
					<stop  offset="0" style="stop-color:#FFFFFF"/>
					<stop  offset="1" style="stop-color:#000000"/>
				</linearGradient>
				<path mask="url(#SVGID_2_)" fill="url(#SVGID_3_)" d="M148.076,243.001c0,11.315,7.012,20.643,16.06,21.972
					c4.296-0.633,8.13-3.064,10.975-6.657c-1.548,0.751-3.234,1.178-5.006,1.178c-0.76,0-1.499-0.097-2.224-0.242
					c-0.725,0.146-1.465,0.242-2.222,0.242c-7.422,0-13.438-7.285-13.438-16.272c0-8.986,6.016-16.271,13.438-16.271
					c0.757,0,1.497,0.095,2.222,0.242c0.725-0.146,1.464-0.242,2.224-0.242c1.985,0,3.866,0.536,5.561,1.473
					c-2.89-3.996-6.948-6.72-11.53-7.392C155.088,222.361,148.076,231.687,148.076,243.001z"/>
			</g>
		</mask>
		<linearGradient id="SVGID_4_" gradientUnits="userSpaceOnUse" x1="117.125" y1="247.2764" x2="174.021" y2="242.104">
			<stop  offset="0" style="stop-color:#666F9D"/>
			<stop  offset="1" style="stop-color:#1F93FF"/>
		</linearGradient>
		<path fill="url(#SVGID_4_)" d="M148.076,243.001c0,11.315,7.012,20.643,16.06,21.972c4.296-0.633,8.13-3.064,10.975-6.657
			c-1.548,0.751-3.234,1.178-5.006,1.178c-0.76,0-1.499-0.097-2.224-0.242c-0.725,0.146-1.465,0.242-2.222,0.242
			c-7.422,0-13.438-7.285-13.438-16.272c0-8.986,6.016-16.271,13.438-16.271c0.757,0,1.497,0.095,2.222,0.242
			c0.725-0.146,1.464-0.242,2.224-0.242c1.985,0,3.866,0.536,5.561,1.473c-2.89-3.996-6.948-6.72-11.53-7.392
			C155.088,222.361,148.076,231.687,148.076,243.001z"/>
	</g>
	<linearGradient id="SVGID_5_" gradientUnits="userSpaceOnUse" x1="162.3428" y1="242.6123" x2="230.2759" y2="242.6123">
		<stop  offset="0" style="stop-color:#F2F9FF"/>
		<stop  offset="1" style="stop-color:#A8AEC8"/>
	</linearGradient>
	<path fill="url(#SVGID_5_)" d="M230.276,212.267c0-2.096-15.208-3.794-33.966-3.794c-18.759,0-33.967,1.698-33.967,3.794
		c0,1.648,0,59.289,0,60.691c0,2.096,15.208,3.794,33.967,3.794c18.758,0,33.966-1.698,33.966-3.794
		C230.276,271.5,230.276,213.966,230.276,212.267z"/>
	<defs>
		<filter id="Adobe_OpacityMaskFilter_2_" filterUnits="userSpaceOnUse" x="166.981" y="212.353" width="60.728" height="61.038">
			<feFlood  style="flood-color:white;flood-opacity:1" result="back"/>
			<feBlend  in="SourceGraphic" in2="back" mode="normal"/>
		</filter>
	</defs>
	<mask maskUnits="userSpaceOnUse" x="166.981" y="212.353" width="60.728" height="61.038" id="SVGID_6_">
		<g filter="url(#Adobe_OpacityMaskFilter_2_)">
			<defs>
				<filter id="Adobe_OpacityMaskFilter_3_" filterUnits="userSpaceOnUse" x="166.981" y="212.353" width="60.728" height="61.038">
					<feFlood  style="flood-color:white;flood-opacity:1" result="back"/>
					<feBlend  in="SourceGraphic" in2="back" mode="normal"/>
				</filter>
			</defs>
			<mask maskUnits="userSpaceOnUse" x="166.981" y="212.353" width="60.728" height="61.038" id="SVGID_6_">
				<g filter="url(#Adobe_OpacityMaskFilter_3_)">
				</g>
			</mask>
			<linearGradient id="SVGID_7_" gradientUnits="userSpaceOnUse" x1="171.6362" y1="242.8716" x2="232.3643" y2="242.8716">
				<stop  offset="0.0108" style="stop-color:#000000"/>
				<stop  offset="1" style="stop-color:#FFFFFF"/>
			</linearGradient>
			<path mask="url(#SVGID_6_)" fill="url(#SVGID_7_)" d="M227.709,215.743c0-1.873-13.596-3.391-30.364-3.391
				c-16.77,0-30.364,1.518-30.364,3.391c0,1.474,0,53.003,0,54.257c0,1.872,13.594,3.391,30.364,3.391
				c16.769,0,30.364-1.519,30.364-3.391C227.709,268.695,227.709,217.263,227.709,215.743z"/>
		</g>
	</mask>
	<linearGradient id="SVGID_8_" gradientUnits="userSpaceOnUse" x1="171.6362" y1="242.8716" x2="232.3643" y2="242.8716">
		<stop  offset="0.0108" style="stop-color:#000F5C"/>
		<stop  offset="1" style="stop-color:#B8DCFF"/>
	</linearGradient>
	<path fill="url(#SVGID_8_)" d="M227.709,215.743c0-1.873-13.596-3.391-30.364-3.391c-16.77,0-30.364,1.518-30.364,3.391
		c0,1.474,0,53.003,0,54.257c0,1.872,13.594,3.391,30.364,3.391c16.769,0,30.364-1.519,30.364-3.391
		C227.709,268.695,227.709,217.263,227.709,215.743z"/>
	<defs>
		<filter id="Adobe_OpacityMaskFilter_4_" filterUnits="userSpaceOnUse" x="143.033" y="214.918" width="50.691" height="61.822">
			<feFlood  style="flood-color:white;flood-opacity:1" result="back"/>
			<feBlend  in="SourceGraphic" in2="back" mode="normal"/>
		</filter>
	</defs>
	<mask maskUnits="userSpaceOnUse" x="143.033" y="214.918" width="50.691" height="61.822" id="SVGID_9_">
		<g filter="url(#Adobe_OpacityMaskFilter_4_)">
			<defs>
				<filter id="Adobe_OpacityMaskFilter_5_" filterUnits="userSpaceOnUse" x="143.033" y="214.918" width="50.691" height="61.822">
					<feFlood  style="flood-color:white;flood-opacity:1" result="back"/>
					<feBlend  in="SourceGraphic" in2="back" mode="normal"/>
				</filter>
			</defs>
			<mask maskUnits="userSpaceOnUse" x="143.033" y="214.918" width="50.691" height="61.822" id="SVGID_9_">
				<g filter="url(#Adobe_OpacityMaskFilter_5_)">
				</g>
			</mask>
			<linearGradient id="SVGID_10_" gradientUnits="userSpaceOnUse" x1="114.021" y1="231.041" x2="244.1126" y2="261.8181">
				<stop  offset="0.0161" style="stop-color:#FFFFFF"/>
				<stop  offset="1" style="stop-color:#000000"/>
			</linearGradient>
			<path mask="url(#SVGID_9_)" fill="url(#SVGID_10_)" d="M193.724,218.56l-31.381-3.642c0,1.325,0,3.085,0,5.174
				c-0.058-0.001-0.113-0.005-0.171-0.005c-10.571,0-19.138,10.374-19.138,23.173c0,12.797,8.567,23.174,19.138,23.174
				c0.058,0,0.114-0.005,0.171-0.006c0,3.787,0,6.255,0,6.53c0,1.998,13.832,3.634,31.381,3.782V218.56z M162.343,259.891
				c-5.946-1.986-10.318-8.567-10.318-16.4s4.372-14.413,10.318-16.401C162.343,237.125,162.343,250.248,162.343,259.891z"/>
		</g>
	</mask>
	<linearGradient id="SVGID_11_" gradientUnits="userSpaceOnUse" x1="114.021" y1="231.041" x2="244.1126" y2="261.8181">
		<stop  offset="0.0161" style="stop-color:#000F5C"/>
		<stop  offset="1" style="stop-color:#B8DCFF"/>
	</linearGradient>
	<path fill="url(#SVGID_11_)" d="M193.724,218.56l-31.381-3.642c0,1.325,0,3.085,0,5.174c-0.058-0.001-0.113-0.005-0.171-0.005
		c-10.571,0-19.138,10.374-19.138,23.173c0,12.797,8.567,23.174,19.138,23.174c0.058,0,0.114-0.005,0.171-0.006
		c0,3.787,0,6.255,0,6.53c0,1.998,13.832,3.634,31.381,3.782V218.56z M162.343,259.891c-5.946-1.986-10.318-8.567-10.318-16.4
		s4.372-14.413,10.318-16.401C162.343,237.125,162.343,250.248,162.343,259.891z"/>
	<ellipse opacity="0.6" fill="#EEEEEE" cx="195.964" cy="212.44" rx="31.208" ry="2.193"/>
	<g>
		<linearGradient id="SVGID_12_" gradientUnits="userSpaceOnUse" x1="295.7109" y1="305.6016" x2="194.8138" y2="309.3015">
			<stop  offset="0" style="stop-color:#F2F9FF"/>
			<stop  offset="1" style="stop-color:#A8AEC8"/>
		</linearGradient>
		<polygon fill="url(#SVGID_12_)" points="228.688,276.588 239.788,277.766 245.714,281.13 303.878,310.947 204.285,340.426 
			151.365,309.254 223.771,279.869 		"/>
		<polygon opacity="0.4" fill="#FFFFFF" points="233.399,283.987 206.998,287.35 211.202,295.087 271.403,295.254 245.001,281.971 
					"/>
		<polygon opacity="0.6" fill="#EEEEEE" points="391.89,385.726 381.798,393.798 265.771,411.96 231.968,350.914 294.526,318.634 		
			"/>
		<polygon opacity="0.6" fill="#EEEEEE" points="218.263,313.248 227.513,315.603 290.572,310.893 279.477,308.202 		"/>
		<linearGradient id="SVGID_13_" gradientUnits="userSpaceOnUse" x1="408.8926" y1="435.2891" x2="273.0149" y2="345.8248">
			<stop  offset="0" style="stop-color:#F2F9FF"/>
			<stop  offset="1" style="stop-color:#A8AEC8"/>
		</linearGradient>
		<path fill="url(#SVGID_13_)" d="M399.029,379.035c0,0-0.364,0-6.464-2.26c-8.054-6.374-18.783-15.892-24.727-25.402
			c-10.351-16.562-22.078-23.461-22.078-23.461l-16.561-3.451l-17.253-15.866l-89.698,5.518l18.295,51.688
			c6.307,5.547,8.076,11.648,13.621,22.448c3.899,7.593,13.529,19.9,13.529,19.9l114.634-17.62L399.029,379.035z"/>
		<polygon opacity="0.4" fill="#FFFFFF" points="335.304,306.857 222.3,316.276 283.174,346.209 250.886,373.786 312.433,356.633 
			284.521,402.706 323.103,385.347 384.404,383.537 371.963,363.361 		"/>
		<g>
			<path fill="#545E92" d="M377.542,330.938c32.756-13.288,28.821-29.939-8.787-37.188c-36.731-7.083-94.266-4.093-127.338,8.499
				c-0.482,0.422-0.243,1.146-0.068,2.434C283.171,312.744,353.591,326.322,377.542,330.938z"/>
			<path opacity="0.6" fill="#EEEEEE" d="M370.828,331.932c32.218-13.527,28.436-30.261-8.449-37.369
				c-36.022-6.95-88.042-4.905-120.574,7.925c-0.476,0.426-2.017,1.347-4.549,3.692
				C278.272,314.089,347.336,327.404,370.828,331.932z"/>
			<path fill="#C4C8D9" d="M377.542,328.524c32.756-13.289,28.821-29.942-8.787-37.193c-37.612-7.248-94.653-2.355-127.407,10.936
				C283.171,310.33,353.591,323.903,377.542,328.524z"/>
			<g>
				<g>
					<path opacity="0.4" fill="#FFFFFF" d="M287.924,311.038c11.633,2.245,23.637,4.558,34.947,6.738l-0.157-24.326
						c-8.398,0.117-16.97,0.66-25.35,1.603L287.924,311.038z"/>
					<path opacity="0.4" fill="#FFFFFF" d="M338.163,321.087c9.35,1.88,18.025,3.624,25.353,5.094l-12.502-31.214
						c-4.609-0.371-9.379-0.574-14.242-0.623L338.163,321.087z"/>
				</g>
			</g>
			<path opacity="0.3" fill="#545E92" d="M335.294,304.944c-16.344-3.151-41.138-1.022-55.373,4.748
				c18.178,3.509,48.781,9.411,59.192,11.414C353.352,315.331,351.639,308.098,335.294,304.944z M328.849,318.656
				c-6.523-1.257-25.693-4.954-37.083-7.148c8.921-3.62,24.45-4.951,34.689-2.978C336.692,310.504,337.764,315.035,328.849,318.656z
				"/>
			<g>
				<path opacity="0.3" fill="#545E92" d="M368.643,291.446c-37.463-7.224-94.286-2.349-126.917,10.886
					c3.804,0.735,7.85,1.514,12.07,2.331c28.263-10.621,75.084-14.393,106.255-8.382c31.181,6.011,35.224,19.591,9.8,30.757
					c2.851,0.549,5.395,1.035,7.547,1.456C410.027,315.254,406.11,298.67,368.643,291.446z"/>
			</g>
			<polygon fill="#C4C8D9" points="349.552,292.945 345.203,297.293 347.375,298.021 354.263,292.403 			"/>
			<polygon fill="#C4C8D9" points="378.367,304.002 389.604,302.73 393.047,305.451 381.271,307.985 			"/>
			<polygon fill="#C4C8D9" points="367.133,322.126 384.166,323.214 378.728,326.475 365.863,323.214 			"/>
			<polygon fill="#C4C8D9" points="316.205,295.48 318.199,295.12 318.925,290.41 315.842,290.41 			"/>
			<polygon fill="#C4C8D9" points="290.105,297.66 291.737,297.478 290.832,292.403 286.846,293.127 			"/>
			<polygon fill="#C4C8D9" points="262.56,303.64 253.68,301.281 256.218,299.109 264.735,302.55 			"/>
		</g>
		<path opacity="0.6" fill="#EEEEEE" d="M184.548,397.582h-13.169c-1.128,0-2.243-0.247-3.263-0.729L59.815,345.899
			c-0.74-0.348-1.538-0.605-2.342-0.751c-6.392-1.166-36.052-6.704-38.278-9.511c-1.917-2.415-2.484-5.632-1.51-8.556
			c0.976-2.924,3.359-5.16,6.341-5.94l115.373-30.255l128.388,60.284L184.548,397.582z"/>
		<linearGradient id="SVGID_14_" gradientUnits="userSpaceOnUse" x1="106.4941" y1="379.9346" x2="191.6932" y2="301.9453">
			<stop  offset="0.0108" style="stop-color:#6E97B0"/>
			<stop  offset="1" style="stop-color:#C2D3DE"/>
		</linearGradient>
		<path fill="url(#SVGID_14_)" d="M87.913,277.774c1.107-1.771,2.987-2.911,5.067-3.079l95.845-7.653
			c1.714-0.137,3.439-0.012,5.116,0.369l4.761,1.082c1.604,0.363,2.936,1.479,3.577,2.992l9.527,22.458l57.796,50.249l0.548,3.789
			c0.168,1.167-0.421,2.313-1.467,2.859l-79.06,41.135c-1.955,1.017-4.149,1.492-6.351,1.373l-4.983-0.27
			c-1.784-0.098-3.507-0.676-4.986-1.674l-60.377-40.782c-2.64-1.785-4.698-4.308-5.912-7.253l-21.586-52.359
			c-1.444-3.504-1.108-7.489,0.901-10.702L87.913,277.774z"/>
		<g>
			<path opacity="0.6" fill="#EEEEEE" d="M173.829,380.807l0.746,11.317c1.161,0.556,2.419,0.888,3.714,0.953l4.983,0.271
				c1.187,0.066,2.371-0.06,3.518-0.334l0.881-11.261L173.829,380.807z"/>
		</g>
		<g>
			<linearGradient id="SVGID_15_" gradientUnits="userSpaceOnUse" x1="142.437" y1="317.5186" x2="93.3325" y2="388.821">
				<stop  offset="0" style="stop-color:#666F9D"/>
				<stop  offset="1" style="stop-color:#1F93FF"/>
			</linearGradient>
			<path fill="url(#SVGID_15_)" d="M176.561,360.72l-66.41-87.396l-17.17,1.374c-2.081,0.166-3.959,1.308-5.067,3.076l-1.585,2.534
				c-2.009,3.213-2.344,7.2-0.899,10.702l21.585,52.361c1.214,2.945,3.271,5.469,5.911,7.252l60.377,40.781
				c0.992,0.67-0.588-10.829,0.569-10.555L176.561,360.72z"/>
		</g>
		<polygon opacity="0.6" fill="#EEEEEE" points="274.329,368.404 163.848,431.97 162.839,435.246 203.197,454.419 213.219,452.147 
			291.48,373.7 290.875,371.314 276.599,367.9 		"/>
		<polygon fill="#5082A0" points="280.146,367.058 169.667,430.625 168.655,433.903 209.014,453.071 214.06,452.063 
			297.298,372.354 296.692,369.97 282.417,366.556 		"/>
		<path opacity="0.6" fill="#EEEEEE" d="M296.391,401.514c-2.614,0.084-4.997,1.823-5.882,4.272l-16.051,44.489
			c-0.71,1.979-0.456,4.159,0.695,5.89c1.153,1.737,3.076,2.821,5.192,2.922l64.134,2.972c2.621,0.122,7.87-1.083,9.572-2.93
			c2.449-1.458,2.366-4.329,1.76-6.668l-15.295-48.243c-0.626-2.419-2.956-4.017-5.696-3.932L296.391,401.514z"/>
		<path fill="#686965" d="M301.438,398.488c-2.614,0.082-5.001,1.824-5.883,4.271l-16.049,44.488
			c-0.714,1.976-0.46,4.159,0.693,5.892c1.153,1.738,3.075,2.822,5.189,2.917l64.131,2.976c2.626,0.121,5.174-0.89,6.88-2.737
			c1.713-1.855,2.362-4.326,1.756-6.667l-12.594-48.438c-0.631-2.417-2.954-4.015-5.697-3.926L301.438,398.488z"/>
		<g opacity="0.4">
			<path fill="#FFFFFF" d="M350.857,458.997c2.21-0.037,4.311-0.992,5.74-2.699c1.542-1.846,2.128-4.308,1.582-6.643l-11.531-49.421
				c-0.585-2.518-2.765-4.343-5.344-4.486l-0.77-0.04l14.274,48.789C356.116,452.471,353.526,456.736,350.857,458.997z"/>
		</g>
		<g>
			<polygon opacity="0.4" fill="#FFFFFF" points="214.564,447.442 296.725,370.092 296.692,369.97 282.417,366.556 280.146,367.058 
				169.667,430.625 169.6,430.833 208.51,448.449 			"/>
			<g>
				<polygon opacity="0.4" fill="#FFFFFF" points="288.185,367.936 283.163,366.556 282.779,366.641 				"/>
				<polygon opacity="0.4" fill="#FFFFFF" points="169.667,430.625 210.84,406.934 169.667,430.369 169.653,430.663 				"/>
				<polygon opacity="0.8" fill="#FFFFFF" points="296.627,370.256 296.566,370.239 214.564,447.442 208.51,448.449 
					169.643,430.852 169.6,431.891 208.769,449.796 214.862,448.771 296.964,371.097 				"/>
			</g>
		</g>
		<g>
			<polygon opacity="0.4" fill="#FFFFFF" points="211.641,443.248 216.926,442.367 238.78,421.794 241.984,390.72 223.188,401.531 
				209.671,442.36 			"/>
			<polygon opacity="0.4" fill="#FFFFFF" points="254.043,407.427 254.53,383.498 250.468,385.837 247.755,413.343 			"/>
		</g>
		<path fill="#FFFFFF" d="M433.638,300.09c0.158-0.799-0.052-1.628-0.571-2.258l-9.511-11.511c-0.605-0.733-1.532-1.119-2.479-1.034
			l-11.967,1.088c-0.648,0.059-1.243,0.378-1.651,0.884c-0.406,0.505-0.591,1.154-0.512,1.801l1.063,8.515
			c0.05,0.408,0.22,0.793,0.486,1.105l8.735,10.241c0.866,1.015,2.143,1.583,3.477,1.545l9.529-0.265
			c0.828-0.023,1.529-0.617,1.688-1.429L433.638,300.09z"/>
		<g>
			<path opacity="0.6" fill="#EEEEEE" d="M416.608,314.594l-6.811-0.253l-12.668-13.346c-0.882-0.927-1.111-2.298-0.582-3.466
				c0.236-0.52,0.743-0.861,1.313-0.886l17.485-0.717l16.647,14.377L416.608,314.594z"/>
			<path fill="#BFC3D6" d="M407.818,286.963c-0.121,0.101-0.26,0.176-0.361,0.298c-0.407,0.507-0.593,1.157-0.511,1.801l1.064,8.515
				c0.05,0.409,0.221,0.793,0.487,1.104l8.735,10.241c0.864,1.016,2.141,1.582,3.476,1.547l9.525-0.264
				c0.829-0.025,1.529-0.618,1.688-1.43l1.717-8.686c0.114-0.592,0.029-1.202-0.235-1.736l-13.684,1.106L407.818,286.963z"/>
			<g>
				<path fill="#3D4983" d="M428.813,292.689l-5.258-6.366c-0.606-0.733-1.533-1.119-2.479-1.032l-11.969,1.087
					c-0.489,0.047-0.919,0.277-1.289,0.585c-0.121,0.101-0.26,0.176-0.361,0.298c-0.407,0.507-0.593,1.157-0.511,1.801l1.064,8.515
					c0.05,0.409,0.221,0.793,0.487,1.104l5.476,6.42l0.531-11.275L428.813,292.689z"/>
			</g>
			<path opacity="0.6" fill="#EEEEEE" d="M407.818,286.963c-0.121,0.101-0.26,0.176-0.361,0.298
				c-0.407,0.507-0.593,1.157-0.511,1.801l1.064,8.515c0.05,0.409,0.221,0.793,0.487,1.104l8.735,10.241
				c0.432,0.506,0.969,0.904,1.562,1.169c0.595,0.267,0.926-10.631,0.926-10.631L407.818,286.963z"/>
		</g>
		<g>
			<path fill="#F0F0F0" d="M494.307,317.564c-0.408-0.485-1.174-0.78-2.053-0.787l-138.281-1.129
				c-1.021-0.006-1.959,0.388-2.394,1.004c-0.432,0.618-0.281,1.347,0.385,1.857l88.039,67.52c0.676,0.52,1.772,0.758,2.896,0.628
				c1.123-0.128,2.102-0.602,2.582-1.252l48.829-66.185C494.719,318.669,494.715,318.051,494.307,317.564z M459.07,332.503
				l-19.513,28.006c-0.201,0.288-0.614,0.497-1.091,0.557c-0.48,0.055-0.947-0.054-1.236-0.283l-35.72-28.523
				c-0.254-0.202-0.299-0.494-0.111-0.744c0.188-0.248,0.572-0.403,0.983-0.401l55.808,0.405c0.354,0.004,0.672,0.124,0.848,0.314
				C459.216,332.033,459.226,332.28,459.07,332.503z"/>
			<path opacity="0.6" fill="#EEEEEE" d="M488.082,319.257c-0.387-0.479-1.106-0.771-1.936-0.778l-130.49-1.117
				c-0.967-0.009-1.852,0.384-2.258,0.993c-0.411,0.612-0.27,1.332,0.361,1.836l83.077,66.803c0.637,0.515,1.677,0.749,2.736,0.623
				c1.056-0.125,1.979-0.597,2.435-1.243l46.076-65.479C488.469,320.351,488.467,319.741,488.082,319.257z M454.828,334.035
				l-18.41,27.707c-0.192,0.285-0.581,0.495-1.032,0.551c-0.448,0.056-0.894-0.052-1.167-0.276l-33.703-28.219
				c-0.242-0.205-0.282-0.49-0.108-0.737c0.18-0.247,0.541-0.4,0.931-0.396l52.661,0.398c0.338,0.003,0.636,0.121,0.803,0.313
				C454.964,333.572,454.975,333.817,454.828,334.035z"/>
			<path fill="#F4F4F4" d="M494.471,315.766c-0.411-0.478-1.179-0.771-2.057-0.777l-138.42-1.137
				c-1.021-0.01-1.961,0.379-2.396,0.99c-0.432,0.611-0.282,1.33,0.388,1.833l88.354,66.819c0.68,0.513,1.78,0.75,2.908,0.623
				c1.123-0.126,2.102-0.601,2.582-1.246l48.655-65.467C494.89,316.856,494.882,316.248,494.471,315.766z M458.575,330.767
				l-19.544,27.388c-0.204,0.281-0.619,0.487-1.096,0.544c-0.477,0.055-0.948-0.051-1.24-0.278l-35.83-27.897
				c-0.257-0.201-0.301-0.488-0.111-0.727c0.186-0.244,0.574-0.399,0.986-0.395l55.952,0.403c0.355,0.002,0.674,0.116,0.852,0.309
				C458.718,330.305,458.731,330.55,458.575,330.767z"/>
			<g>
				<path opacity="0.4" fill="#FFFFFF" d="M399.083,332.811c-0.708-0.555-1.171-1.334-1.305-2.192
					c-0.146-0.929,0.101-1.852,0.686-2.606c0.738-0.946,1.957-1.511,3.263-1.511l13.974,0.101l-2.284-9.363l-24.687-0.202
					l-2.581,21.839l39.906,30.186l-4.59-18.825L399.083,332.811z"/>
				<polygon opacity="0.4" fill="#FFFFFF" points="442.219,358.679 447.667,375.538 464.367,353.067 455.79,339.654 				"/>
				<polygon opacity="0.4" fill="#FFFFFF" points="447.59,326.831 441.604,317.472 428.871,317.365 431.895,326.718 				"/>
			</g>
			<g opacity="0.4">
				<path opacity="0.4" fill="#FFFFFF" d="M353.973,315.397c-0.34-0.006-0.658,0.047-0.963,0.131l86.993,66.717
					c0.676,0.519,1.772,0.757,2.896,0.629c1.123-0.129,2.102-0.602,2.582-1.256l47.887-64.904c-0.331-0.119-0.706-0.188-1.113-0.188
					L353.973,315.397z M459.07,332.253l-19.513,28.003c-0.201,0.285-0.614,0.499-1.091,0.555c-0.48,0.056-0.947-0.048-1.236-0.281
					l-35.72-28.523c-0.254-0.203-1.963-2.853-1.963-2.848c0.077,0.308,2.424-1.831,2.835-1.827l55.808,0.403
					c0.354,0.005,0.629,0.177,0.848,0.318C461.514,329.661,459.226,332.029,459.07,332.253z"/>
			</g>
		</g>
		<g>
			<path opacity="0.6" fill="#EEEEEE" d="M417.432,336.849l21.012-11.516c0,0,4.555-1.673,7.513,2.175
				c3.238,4.206-2.315,6.563-2.315,6.563l-22.492,7.213L417.432,336.849z"/>
			<path fill="#EEEEEE" d="M420.46,329.656l21.009-11.514c0,0,4.555-1.672,7.515,2.176c3.238,4.207-2.318,6.563-2.318,6.563
				l-22.488,7.211L420.46,329.656z"/>
			<g opacity="0.4">
				<path fill="#FFFFFF" d="M423.798,330.752l1.19,3.079l21.677-6.949c0,0,5.557-2.356,2.318-6.563
					c-2.96-3.848-7.515-2.176-7.515-2.176l-0.305,0.169l3.69,2.284L423.798,330.752z"/>
			</g>
			<path opacity="0.6" fill="#EEEEEE" d="M300.896,338.756c-1.695-1.029-2.797-2.807-2.964-4.782
				c-0.169-1.975,0.616-3.912,2.114-5.212c2.432-2.113,5.559-3.252,8.778-3.196l92.887,1.539c1.837,0.032,3.642,0.508,5.254,1.383
				l10.124,5.505c1.758,0.956,2.953,2.692,3.216,4.674l0.13,0.959c0.254,1.917-0.614,3.807-2.235,4.859l-68.084,44.204
				c-3.703,2.406-8.434,2.638-12.353,0.596c-1.332-0.693-2.387-1.398-2.676-1.954c-0.838-1.607-0.841-3.521-0.005-5.13l1.815-3.495
				c0.644-1.24,1.605-2.288,2.788-3.034l46.306-29.209c0.749-0.474,1.094-1.386,0.849-2.238c-0.247-0.853-1.028-1.438-1.917-1.438
				c-15.64,0.041-53.84,0.076-73.484-0.514c-3.263-0.097-6.462-1.038-9.251-2.733L300.896,338.756z"/>
			<path fill="#949ABA" d="M310.982,335.728c-1.695-1.027-2.795-2.806-2.963-4.78c-0.169-1.976,0.618-3.911,2.113-5.212
				c2.435-2.112,5.56-3.251,8.779-3.198l92.89,1.542c1.835,0.028,3.64,0.504,5.254,1.382l10.125,5.503
				c1.758,0.956,2.953,2.693,3.215,4.676l0.131,0.959c0.256,1.916-0.615,3.808-2.236,4.858l-68.085,44.206
				c-3.704,2.407-8.436,2.637-12.353,0.596c-1.332-0.693-2.389-1.397-2.678-1.953c-0.838-1.61-1.038-4.665-0.206-6.275l1.643-2.897
				c0.596-0.85,1.813-1.633,2.687-2.188l46.782-29.51c0.751-0.474,1.098-1.388,0.85-2.239c-0.247-0.852-1.029-1.438-1.916-1.438
				c-15.642,0.045-53.843,0.077-73.486-0.513c-3.264-0.099-6.461-1.039-9.253-2.731L310.982,335.728z"/>
			<g>
				<path opacity="0.6" fill="#EEEEEE" d="M404.946,330.338l-88.958-2.628c0,0-4.564,0-5.698,3.1
					c0.285,1.479-0.546,5.224,13.112,6.519c19.132,1.808,56.572,0.46,71.871,0.426c0.749-0.004,2.719,1.633,3.048,2.188l8.448-5.294
					L404.946,330.338z"/>
			</g>
			<polygon fill="#EEEEEE" points="396.176,339.986 417.533,329.729 396.681,342.843 			"/>
			<ellipse fill="#C7CADB" cx="412.448" cy="332.63" rx="9.081" ry="4.366"/>
			<path opacity="0.6" fill="#EEEEEE" d="M417.518,331.998c0,0.998-1.676,1.809-3.747,1.809c-2.069,0-3.749-0.811-3.749-1.809
				c0-0.996,1.68-1.809,3.749-1.809C415.842,330.189,417.518,331.002,417.518,331.998z"/>
			<path opacity="0.8" fill="#FFFFFF" d="M423.575,333.342c0.744,0.509,1.178,1.361,1.158,2.261
				c-0.021,0.902-0.497,1.73-1.265,2.203l-68.381,42.26c-1.425,0.881-3.266,0.683-4.467-0.482c-0.456-0.441-0.687-1.063-0.629-1.694
				c0.055-0.628,0.394-1.199,0.92-1.551l59.98-40.187c0.97-0.651,1.33-1.905,0.85-2.973l-2.752-6.106
				c-0.114-0.251-0.113-0.538,0.005-0.789c0.116-0.249,0.336-0.434,0.602-0.509l1.131-0.317c0.609-0.17,1.263-0.063,1.788,0.297
				L423.575,333.342z"/>
			<path opacity="0.6" fill="#EEEEEE" d="M418.993,331.874c0,1.366-2.309,2.48-5.159,2.48c-2.854,0-5.162-1.114-5.162-2.48
				c0-1.372,2.309-2.482,5.162-2.482C416.685,329.392,418.993,330.502,418.993,331.874z"/>
			<ellipse fill="#C7CADB" cx="413.771" cy="331.998" rx="2.337" ry="1.128"/>
		</g>
		<path fill="#E0E2EB" d="M300.306,400.941c-1.296,0.082-2.479,0.979-2.908,2.201l-14.717,41.893
			c-0.283,0.809-0.174,1.694,0.298,2.403c0.472,0.706,1.253,1.147,2.109,1.186l68.103,3.208c0.967,0.046,1.91-0.302,2.538-0.939
			c0.626-0.643,0.863-1.494,0.637-2.304l-13.485-48.303c-0.326-1.17-1.523-1.909-2.93-1.82L300.306,400.941z"/>
		<g>
			<path opacity="0.6" fill="#EEEEEE" d="M349.136,456.731c-7.694-0.127-59.833-3.566-68.615-3.978
				c1.301,1.771,3.312,2.893,5.517,3.005l64.303,3.273c2.399,0.121,4.719-0.894,6.258-2.734c0.149-0.181,0.25-0.392,0.383-0.585
				C355.382,456.57,352.88,456.792,349.136,456.731z"/>
		</g>
		<path fill="#E0E2EB" d="M300.938,399.054c-1.34,0.039-2.57,0.931-3.02,2.194l-15.535,44.035c-0.305,0.868-0.188,1.81,0.316,2.56
			c0.502,0.75,1.336,1.211,2.25,1.248l68.221,2.77c0.915,0.036,1.797-0.319,2.386-0.961c0.591-0.646,0.814-1.498,0.602-2.304
			l-12.791-48.633c-0.314-1.196-1.461-1.985-2.815-1.95L300.938,399.054z"/>
		<polygon fill="#5082A0" points="300.494,402.877 287.882,437.685 351.278,442.226 340.854,400.69 		"/>
		<ellipse opacity="0.6" fill="#EEEEEE" cx="316.723" cy="444.835" rx="8.661" ry="3.614"/>
		<path fill="#E0E2EB" d="M323.699,444.835c0,1.531-3.124,2.773-6.979,2.773c-3.854,0-6.977-1.242-6.977-2.773
			c0-1.535,3.123-2.777,6.977-2.777C320.575,442.058,323.699,443.3,323.699,444.835z"/>
		<g>
			<polygon opacity="0.4" fill="#FFFFFF" points="289.867,436.67 324.107,439.123 333.494,402.316 310.808,403.549 295.387,421.433 
							"/>
			<path opacity="0.4" fill="#FFFFFF" d="M342.938,440.472l0.387-23.319l-3.804-15.159l-1.187,0.063
				c-1.191,9.896-3.199,26.097-4.647,37.753L342.938,440.472z"/>
		</g>
		<ellipse fill="#4B4C48" cx="333.809" cy="455.594" rx="1.704" ry="1.134"/>
		<ellipse fill="#4B4C48" cx="339.613" cy="455.594" rx="1.703" ry="1.134"/>
		<path fill="#4B4C48" d="M347.304,455.849c0-0.625-0.761-1.138-1.7-1.138c-0.942,0-1.702,0.513-1.702,1.138
			c0,0.624,0.76,1.134,1.702,1.134C346.543,456.982,347.304,456.473,347.304,455.849z"/>
		<g>
			<path fill="#E7EEF2" d="M170.164,378c5.953,5.226,14.395,6.522,21.641,3.324l78.177-34.496l-0.38-2.633l-57.796-50.251
				l-9.6-22.231c-0.594-1.642-1.979-2.871-3.682-3.259l-4.101-0.933c-1.992-0.453-4.051-0.544-6.074-0.264l-95.619,7.285
				c-1.939,0.268-3.658,1.377-4.695,3.038l-1.455,2.323l21.706,43.771L170.164,378z"/>
			<g>
				<path fill="#C9D8E2" d="M170.163,375.582c5.952,5.117,14.396,6.383,21.642,3.257l78.42-32.127l-0.623-4.198l-57.796-49.154
					l-9.6-21.747c-0.592-1.608-2.755-3.893-4.456-4.271l-2.02-0.505c-1.992-0.444-5.878-0.441-7.905-0.169l-95.095,7.714
					c-1.938,0.26-3.658,1.349-4.697,2.972l-1.451,2.27l21.704,42.82L170.163,375.582z"/>
			</g>
			<g>
				<linearGradient id="SVGID_16_" gradientUnits="userSpaceOnUse" x1="79.2236" y1="313.1816" x2="169.019" y2="278.8777">
					<stop  offset="0" style="stop-color:#666F9D"/>
					<stop  offset="1" style="stop-color:#1F93FF"/>
				</linearGradient>
				<path fill="url(#SVGID_16_)" d="M211.806,293.359l-9.6-21.747c-0.592-1.608-2.755-3.893-4.456-4.271l-2.02-0.505
					c-1.992-0.444-5.878-0.441-7.905-0.169l-95.095,7.714c-1.938,0.26-3.658,1.349-4.697,2.972l-1.451,2.27l21.704,42.82
					l1.295,1.112l104.659-28.121L211.806,293.359z"/>
			</g>
		</g>
		<g opacity="0.6">
			<linearGradient id="SVGID_17_" gradientUnits="userSpaceOnUse" x1="265.5518" y1="341.2705" x2="99.9843" y2="331.3116">
				<stop  offset="0" style="stop-color:#F2F9FF"/>
				<stop  offset="1" style="stop-color:#A8AEC8"/>
			</linearGradient>
			<path fill="url(#SVGID_17_)" d="M172.418,373.205c5.452,4.501,12.933,5.645,19.48,2.981l73.149-29.77
				c0.761-0.309,1.303-0.994,1.432-1.804c0.126-0.813-0.18-1.631-0.81-2.159l-54.468-45.686l-98.373,27.241L172.418,373.205z"/>
			<g>
				<path opacity="0.8" fill="#EEEEEE" d="M158.904,311.23l-4.524,46.513l18.005,15.247c5.461,4.624,13.039,5.835,19.665,3.135
					l8.175-3.323l-4.159-71.661L158.904,311.23z"/>
				<polygon opacity="0.8" fill="#EEEEEE" points="211.202,296.769 202.005,298.989 213.893,367.238 241.566,355.977 
					220.842,304.855 				"/>
			</g>
		</g>
		<path opacity="0.6" fill="#EEEEEE" d="M330.807,293.896l-29.852-4.525l9.714-1.388l74.851-8.892l-11.202-15.619
			c0,0-133.856,3.027-137.39,7.905c-3.529,4.874,31.782,22.364,31.782,22.364l20.138-2.985l40.226,7.171
			C331.244,297.293,331.501,295.752,330.807,293.896z"/>
		<linearGradient id="SVGID_18_" gradientUnits="userSpaceOnUse" x1="338.1279" y1="238.9092" x2="406.1016" y2="238.9092">
			<stop  offset="0" style="stop-color:#608DA9"/>
			<stop  offset="1" style="stop-color:#81A5BB"/>
		</linearGradient>
		<path fill="url(#SVGID_18_)" d="M371.936,198.185c-9.168,0.837-24.848,5.68-33.808,9.05l12.746,67.175
			c5.945,2.215,11.073,5.429,24.733,5.429s20.299-3.495,24.736-5.429l5.758-72.555C399.965,200.868,384.254,197.061,371.936,198.185
			z"/>
		<g>
			<path opacity="0.4" fill="#FFFFFF" d="M388.328,198.813l-8.8,5.803l-2.769,75.2c10.167-0.15,16.297-2.262,20.545-4.069
				l5.097-74.564C398.693,200.474,393.697,199.503,388.328,198.813z"/>
		</g>
		<path opacity="0.4" fill="#FFFFFF" d="M406.205,201.915c-6.165-1.005-21.951-4.877-34.326-3.745
			c-9.206,0.842-24.953,5.741-33.954,9.155c5.805,1.564,15.801,5.428,34.915,4.026C393.85,207.228,402.208,203.291,406.205,201.915z
			"/>
		<path opacity="0.6" fill="#EEEEEE" d="M402.814,202.236c-5.538-0.757-19.717-3.734-30.866-2.739
			c-8.295,0.742-22.504,4.775-30.63,7.569c5.21,1.208,14.182,4.223,31.396,2.962C391.657,206.575,399.209,203.365,402.814,202.236z"
			/>
		<g>
			<path opacity="0.6" fill="#EEEEEE" d="M372.335,204.798c-6.545,0.532-16.826,2.22-24.908,3.74c5.5,1.201,13.44,2.357,25.288,1.49
				c10.792-1.967,17.878-3.853,22.65-5.324C388.72,204.429,379.878,204.185,372.335,204.798z"/>
		</g>
		<polygon fill="#86A9BD" points="336.144,179.48 346.341,207.519 351.438,208.368 353.421,206.951 346.06,176.365 		"/>
		<polygon fill="#0084FF" points="377.498,207.519 379.032,174.121 384.087,176.318 381.231,206.86 		"/>
		<polygon fill="#F4F4F4" points="391.306,204.441 404.422,161.568 411.31,160.222 412.617,169.566 399.202,201.925 		"/>
		<polygon fill="#0F8BFF" points="361.032,209.156 339.634,126.953 364.275,119.022 372.3,208.652 		"/>
		<g>
			<polygon opacity="0.4" fill="#FFFFFF" points="363.813,136.584 350.2,163.329 354.481,179.779 365.704,157.727 			"/>
			<polygon opacity="0.4" fill="#FFFFFF" points="366.353,164.945 355.945,185.395 358.029,193.402 367.274,175.238 			"/>
		</g>
		<g>
			<path fill="#F4F4F4" d="M331.208,295.85l1.035-0.371c1.713-1.189,2.806-2.576,3.143-4.007c0.127-2.133-2.186-3.742-2.186-3.742
				l-44.293-10.229l-13.708,0.618l-0.303,0.672l9.126,6.937L331.208,295.85z"/>
			<g>
				<polygon fill="#F9F9F9" points="288.917,277.503 275.206,278.123 274.905,278.791 284.028,285.729 284.759,285.893 
					285.065,281.173 289.697,277.723 				"/>
			</g>
			<polygon fill="#EBEBEB" points="279.628,282.31 282.328,277.851 274.354,277.673 273.8,278.751 			"/>
			<g>
				<path opacity="0.6" fill="#EEEEEE" d="M273.714,278.838l10.309,6.89l47.186,10.122l1.035-0.371
					c1.533-1.063,2.873-2.672,3.071-3.733l-61.095-14.171L273.714,278.838z"/>
			</g>
			
				<ellipse transform="matrix(0.498 -0.8672 0.8672 0.498 -84.0164 433.7699)" opacity="0.4" fill="#FFFFFF" cx="332.656" cy="289.453" rx="0.925" ry="2.103"/>
			<polygon opacity="0.4" fill="#FFFFFF" points="333.179,293.718 284.956,283.542 285.116,281.247 286.011,280.478 
				334.755,291.702 			"/>
		</g>
		<g>
			<path fill="#5082A0" d="M108.119,323.001l-20.894-44.126l-0.898,1.434c-0.17,0.272-0.312,0.561-0.459,0.847l21.241,44.199
				l65.416,57.176v8.35l0.777,0.525c0.535,0.363,1.109,0.647,1.699,0.896c0.007-3.36,0.214-10.61,0.214-10.61L108.119,323.001z"/>
		</g>
		<polygon fill="#5082A0" points="104.333,287.603 110.642,316.109 205.23,289.783 197.774,273.379 		"/>
		<polygon opacity="0.6" fill="#EEEEEE" points="239.915,331.24 215.699,349.151 223.394,357.094 256.604,342.843 		"/>
		<polygon fill="#F4F4F4" points="242.479,330.568 219.273,349.236 224.99,355.625 257.613,341.834 		"/>
		<g>
			<polygon opacity="0.6" fill="#EEEEEE" points="219.273,349.236 224.99,355.625 257.613,341.834 225.83,352.85 222.552,348.394 
				242.552,330.624 242.491,330.578 242.382,330.645 			"/>
		</g>
		<g>
			<polygon opacity="0.4" fill="#FFFFFF" points="151.878,302.314 158.363,281.216 142.304,284.194 130.798,307.771 			"/>
			<polygon opacity="0.4" fill="#FFFFFF" points="167.021,298.396 171.535,278.773 164.602,280.061 159.107,300.444 			"/>
		</g>
		<polygon fill="#FFFFFF" points="93.656,275.263 98.809,284.354 121.133,279.001 121.74,274.961 		"/>
		<polygon fill="#5082A0" points="95.86,275.928 100.204,282.813 119.027,278.759 119.536,275.696 		"/>
		<path fill="#5082A0" d="M197.16,428.356c0,1.81-3.274,3.276-7.315,3.276c-4.04,0-7.315-1.467-7.315-3.276
			c0-1.814,3.275-3.281,7.315-3.281C193.885,425.075,197.16,426.542,197.16,428.356z"/>
		<polygon fill="#FFFFFF" points="210.529,294.244 113.502,322.665 214.564,297.946 		"/>
		<polygon opacity="0.4" fill="#FFFFFF" points="386.592,208.4 386.592,277.766 389.872,276.629 397.438,204.995 		"/>
		<polygon opacity="0.4" fill="#FFFFFF" points="349.765,210.418 357.712,277.134 350.874,274.41 337.925,207.325 		"/>
		<path opacity="0.4" fill="#FFFFFF" d="M487.866,316.359l5.501,0.354l-4.996,6.584
			C488.371,323.298,492.782,316.486,487.866,316.359z"/>
		<path fill="#FFFFFF" d="M344.302,451.599c11.896-0.039,9.205-5.039,9.793-11.221c1.779,7.75,5.253,11.431-2.563,11.474
			C349.83,451.861,347.328,451.684,344.302,451.599z"/>
		<polygon fill="#FFFFFF" points="240.629,277.598 230.708,280.794 227.85,276.42 		"/>
		<path opacity="0.8" fill="#FFFFFF" d="M403.618,327.836l-87.782-2.147c0,0,2.4-2.154,7.065-2.269l81.349,1.387L403.618,327.836z"
			/>
		<polygon fill="#EEEEEE" points="345.729,382.53 330.595,393.628 350.941,385.554 		"/>
		<polygon opacity="0.6" fill="#EEEEEE" points="308.021,330.948 289.229,327.836 309.66,326.573 		"/>
		<polygon opacity="0.6" fill="#FFFFFF" points="224.234,348.058 226.672,351.252 241.974,345.704 234.24,339.143 		"/>
		<polygon opacity="0.6" fill="#FFFFFF" points="237.098,336.959 245.001,344.189 250.886,342.005 238.949,335.107 		"/>
		<g>
			<linearGradient id="SVGID_19_" gradientUnits="userSpaceOnUse" x1="164.1152" y1="269.3799" x2="198.4814" y2="269.3799">
				<stop  offset="0" style="stop-color:#F2F9FF"/>
				<stop  offset="1" style="stop-color:#A8AEC8"/>
			</linearGradient>
			<path opacity="0.4" fill="url(#SVGID_19_)" d="M194.06,267.898c-3.688-0.655-22.095,2.344-29.944,3.056l34.366-0.547
				C197.843,269.308,196.824,268.391,194.06,267.898z"/>
		</g>
		<polygon fill="#5082A0" points="198.925,435.667 284.436,369.582 286.451,369.582 202.206,436.424 		"/>
		<polygon fill="#5082A0" points="220.112,425.329 227.681,428.86 229.193,427.598 221.375,424.066 		"/>
		<polygon fill="#5082A0" points="234.743,413.219 242.311,416.748 243.824,415.489 236.004,411.96 		"/>
		<polygon fill="#5082A0" points="247.859,402.303 253.957,405.146 255.176,404.131 248.876,401.286 		"/>
		<polygon fill="#5082A0" points="257.651,395.103 262.982,397.591 264.051,396.704 258.539,394.213 		"/>
		<polygon fill="#5082A0" points="266.521,388.238 270.524,390.105 271.323,389.44 267.188,387.574 		"/>
		<polygon fill="#5082A0" points="274.593,381.936 278.593,383.8 279.394,383.134 275.261,381.268 		"/>
		<g>
			<polygon fill="#5082A0" points="155.432,316.612 163.97,324.836 180.656,320.037 172.504,312.753 			"/>
			<polygon fill="#5082A0" points="146.749,318.574 124.936,323.509 135.865,332.926 156.707,326.928 			"/>
			<polygon fill="#5082A0" points="167.137,327.888 178.697,339.022 194.276,332.203 183.969,322.995 			"/>
			<polygon fill="#5082A0" points="160.245,329.893 139.397,335.952 155.373,349.236 173.726,341.199 			"/>
			<polygon fill="#5082A0" points="160.417,354.112 176.393,367.396 192.888,357.272 179.188,345.778 			"/>
			<polygon fill="#5082A0" points="183.653,343.799 195.791,355.489 210.344,346.559 199.418,336.797 			"/>
			<g>
				<polygon fill="#5082A0" points="177.625,311.595 185.259,318.709 201.812,313.949 195.909,307.461 				"/>
				<polygon fill="#5082A0" points="219.442,308.872 212.715,303.664 200.283,306.475 206.78,312.523 				"/>
				<polygon fill="#5082A0" points="228.354,317.284 222.131,311.904 209.929,315.447 217.163,322.185 				"/>
				<polygon fill="#5082A0" points="188.456,321.691 197.99,330.578 211.549,324.645 204.594,316.999 				"/>
				<polygon fill="#5082A0" points="239.957,328.384 232.391,322.16 222.063,326.745 230.235,334.351 				"/>
				<polygon fill="#5082A0" points="202.972,335.223 213.232,344.787 225.662,336.791 217.683,328.028 				"/>
			</g>
		</g>
		<polygon opacity="0.4" fill="#FFFFFF" points="159.24,332.253 156.549,345.029 169.161,340.321 		"/>
		<polygon opacity="0.4" fill="#FFFFFF" points="146.459,320.479 153.017,326.531 139.229,329.729 		"/>
		<polygon opacity="0.4" fill="#FFFFFF" points="171.853,314.428 165.629,323.338 177.57,319.47 		"/>
		<polygon opacity="0.4" fill="#FFFFFF" points="183.791,324.853 179.419,336.455 190.518,331.579 		"/>
		<polygon opacity="0.4" fill="#FFFFFF" points="176.898,363.864 178.579,348.394 188.668,356.633 		"/>
		<polygon opacity="0.4" fill="#FFFFFF" points="196.236,350.914 199.431,338.808 206.83,345.872 		"/>
		<polygon opacity="0.4" fill="#FFFFFF" points="213.723,341.666 217.424,329.896 223.31,336.622 		"/>
		<polygon opacity="0.4" fill="#FFFFFF" points="230.875,331.579 232.391,324.344 237.265,328.384 		"/>
		<polygon opacity="0.4" fill="#FFFFFF" points="217.929,319.976 221.627,313.415 225.496,316.949 		"/>
		<polygon opacity="0.4" fill="#FFFFFF" points="207.669,309.716 211.706,305.009 216.583,307.864 		"/>
		<polygon opacity="0.4" fill="#FFFFFF" points="186.986,316.444 195.227,308.872 198.925,312.912 		"/>
		<polygon opacity="0.4" fill="#FFFFFF" points="198.421,328.046 204.475,318.46 209.182,323.507 		"/>
		<g opacity="0.7">
			<path opacity="0.6" fill="#EEEEEE" d="M111.177,344.497c-0.43-0.335-0.722-0.814-0.819-1.347l-1.29-7.035
				c-0.094-0.514,0.132-1.035,0.572-1.317c0.442-0.281,1.009-0.271,1.438,0.031l8.448,5.927c0.729,0.513,1.066,1.42,0.844,2.28
				l-1.062,4.166c-0.168,0.66-0.66,1.192-1.305,1.413c-0.646,0.223-1.36,0.105-1.9-0.313L111.177,344.497z"/>
			<g>
				<path opacity="0.6" fill="#EEEEEE" d="M113.095,343.152c0.099,0.532,0.392,1.012,0.821,1.345l4.762,3.681
					c0.292-0.261,0.53-0.583,0.631-0.975l1.062-4.164c0.221-0.859-0.116-1.77-0.844-2.282l-7.637-5.356
					c-0.09,0.225-0.127,0.471-0.082,0.719L113.095,343.152z"/>
			</g>
		</g>
		<polygon opacity="0.6" fill="#EEEEEE" points="97.694,276.841 100.72,281.885 105.68,280.625 104.923,276.925 		"/>
		<polygon opacity="0.6" fill="#EEEEEE" points="106.605,277.26 107.109,279.951 118.125,277.933 118.461,276.336 		"/>
		<polygon fill="#FFFFFF" points="382.328,390.528 396.176,366.053 397.186,379.168 		"/>
		<polygon opacity="0.3" fill="#EEEEEE" points="382.328,390.528 368.263,387.236 390.463,375.803 		"/>
		<g>
			<path opacity="0.6" fill="#EEEEEE" d="M85.754,281.342c-1.486,3.008-1.619,6.532-0.326,9.669l20.071,48.687l1.61-14.343
				C107.109,325.354,85.928,280.991,85.754,281.342z"/>
		</g>
		<polygon fill="#C9D8E2" points="174.047,380.556 175.001,392.301 178.999,382.069 		"/>
	</g>
	<g>
		<path fill="#EBEBEB" d="M168.445,213.475c5.261,0.689,15.61,1.158,27.519,1.158c11.912,0,22.261-0.468,27.521-1.158
			c-5.26-0.689-15.61-1.158-27.521-1.158C184.055,212.316,173.706,212.785,168.445,213.475z"/>
	</g>
	<path opacity="0.6" fill="#FFFFFF" d="M196.138,210.285c-2.458-3.414-4.392-7.59-4.392-11.66c0-3.805,3.53-11.37,3.53-22.027
		c0-5.652-1.121-11.167-4.139-16.142c5.68,6.532,7.721,14.157,7.721,22.074c0,11.75-3.939,19.692-3.939,23.871
		c0,1.01,0.153,2.019,0.53,3.022C195.583,209.784,195.966,209.939,196.138,210.285z"/>
	<path opacity="0.6" fill="#FFFFFF" d="M202.382,211.773c-1.662-2.316-2.309-4.618-2.309-6.9c0-8.321,7.672-10.793,6.754-19.676
		c-0.518-5,0.775-6.896,0.861-9.57c0.606,4.73,1.564,9.215,1.564,13.988c0,7.226-7.013,11.431-7.013,20.176
		C202.24,210.441,202.286,211.101,202.382,211.773z"/>
	<defs>
		<filter id="Adobe_OpacityMaskFilter_6_" filterUnits="userSpaceOnUse" x="176.783" y="235.889" width="15.647" height="19.269">
			<feFlood  style="flood-color:white;flood-opacity:1" result="back"/>
			<feBlend  in="SourceGraphic" in2="back" mode="normal"/>
		</filter>
	</defs>
	<mask maskUnits="userSpaceOnUse" x="176.783" y="235.889" width="15.647" height="19.269" id="SVGID_20_">
		<g filter="url(#Adobe_OpacityMaskFilter_6_)">
			<defs>
				<filter id="Adobe_OpacityMaskFilter_7_" filterUnits="userSpaceOnUse" x="176.783" y="235.889" width="15.647" height="19.269">
					<feFlood  style="flood-color:white;flood-opacity:1" result="back"/>
					<feBlend  in="SourceGraphic" in2="back" mode="normal"/>
				</filter>
			</defs>
			<mask maskUnits="userSpaceOnUse" x="176.783" y="235.889" width="15.647" height="19.269" id="SVGID_20_">
				<g filter="url(#Adobe_OpacityMaskFilter_7_)">
				</g>
			</mask>
			<linearGradient id="SVGID_21_" gradientUnits="userSpaceOnUse" x1="111.6631" y1="251.6152" x2="256.4937" y2="239.2012">
				<stop  offset="0.0161" style="stop-color:#FFFFFF"/>
				<stop  offset="1" style="stop-color:#000000"/>
			</linearGradient>
			<polygon mask="url(#SVGID_20_)" fill="url(#SVGID_21_)" points="178.076,252.57 182.215,245.587 176.783,238.475 179.37,236.666 
				183.377,242.612 186.483,235.889 192.43,235.889 185.318,245.587 190.492,252.829 186.741,253.477 183.637,247.916 
				178.981,255.157 			"/>
		</g>
	</mask>
	<linearGradient id="SVGID_22_" gradientUnits="userSpaceOnUse" x1="111.6631" y1="251.6152" x2="256.4937" y2="239.2012">
		<stop  offset="0.0161" style="stop-color:#000F5C"/>
		<stop  offset="1" style="stop-color:#B8DCFF"/>
	</linearGradient>
	<polygon fill="url(#SVGID_22_)" points="178.076,252.57 182.215,245.587 176.783,238.475 179.37,236.666 183.377,242.612 
		186.483,235.889 192.43,235.889 185.318,245.587 190.492,252.829 186.741,253.477 183.637,247.916 178.981,255.157 	"/>
	<defs>
		<filter id="Adobe_OpacityMaskFilter_8_" filterUnits="userSpaceOnUse" x="191.784" y="238.864" width="9.569" height="10.732">
			<feFlood  style="flood-color:white;flood-opacity:1" result="back"/>
			<feBlend  in="SourceGraphic" in2="back" mode="normal"/>
		</filter>
	</defs>
	<mask maskUnits="userSpaceOnUse" x="191.784" y="238.864" width="9.569" height="10.732" id="SVGID_23_">
		<g filter="url(#Adobe_OpacityMaskFilter_8_)">
			<defs>
				<filter id="Adobe_OpacityMaskFilter_9_" filterUnits="userSpaceOnUse" x="191.784" y="238.864" width="9.569" height="10.732">
					<feFlood  style="flood-color:white;flood-opacity:1" result="back"/>
					<feBlend  in="SourceGraphic" in2="back" mode="normal"/>
				</filter>
			</defs>
			<mask maskUnits="userSpaceOnUse" x="191.784" y="238.864" width="9.569" height="10.732" id="SVGID_23_">
				<g filter="url(#Adobe_OpacityMaskFilter_9_)">
				</g>
			</mask>
			<linearGradient id="SVGID_24_" gradientUnits="userSpaceOnUse" x1="111.6509" y1="251.3638" x2="256.4663" y2="238.951">
				<stop  offset="0.0161" style="stop-color:#FFFFFF"/>
				<stop  offset="1" style="stop-color:#000000"/>
			</linearGradient>
			<path mask="url(#SVGID_23_)" fill="url(#SVGID_24_)" d="M191.784,242.225l3.751,0.518l-0.777-3.879l3.621,0.388l-0.518,3.231
				l3.491-0.387v3.622l-3.75-0.519l0.389,4.139c-2.052,0-3.233,0.257-3.233,0.257l0.387-4.655l-3.103,0.646L191.784,242.225z"/>
		</g>
	</mask>
	<linearGradient id="SVGID_25_" gradientUnits="userSpaceOnUse" x1="111.6509" y1="251.3638" x2="256.4663" y2="238.951">
		<stop  offset="0.0161" style="stop-color:#000F5C"/>
		<stop  offset="1" style="stop-color:#B8DCFF"/>
	</linearGradient>
	<path fill="url(#SVGID_25_)" d="M191.784,242.225l3.751,0.518l-0.777-3.879l3.621,0.388l-0.518,3.231l3.491-0.387v3.622
		l-3.75-0.519l0.389,4.139c-2.052,0-3.233,0.257-3.233,0.257l0.387-4.655l-3.103,0.646L191.784,242.225z"/>
	<defs>
		<filter id="Adobe_OpacityMaskFilter_10_" filterUnits="userSpaceOnUse" x="200.708" y="230.844" width="15.645" height="24.838">
			<feFlood  style="flood-color:white;flood-opacity:1" result="back"/>
			<feBlend  in="SourceGraphic" in2="back" mode="normal"/>
		</filter>
	</defs>
	<mask maskUnits="userSpaceOnUse" x="200.708" y="230.844" width="15.645" height="24.838" id="SVGID_26_">
		<g filter="url(#Adobe_OpacityMaskFilter_10_)">
			<defs>
				
					<filter id="Adobe_OpacityMaskFilter_11_" filterUnits="userSpaceOnUse" x="200.708" y="230.844" width="15.645" height="24.838">
					<feFlood  style="flood-color:white;flood-opacity:1" result="back"/>
					<feBlend  in="SourceGraphic" in2="back" mode="normal"/>
				</filter>
			</defs>
			<mask maskUnits="userSpaceOnUse" x="200.708" y="230.844" width="15.645" height="24.838" id="SVGID_26_">
				<g filter="url(#Adobe_OpacityMaskFilter_11_)">
				</g>
			</mask>
			<linearGradient id="SVGID_27_" gradientUnits="userSpaceOnUse" x1="111.6475" y1="251.4731" x2="256.484" y2="239.0586">
				<stop  offset="0.0161" style="stop-color:#FFFFFF"/>
				<stop  offset="1" style="stop-color:#000000"/>
			</linearGradient>
			<polygon mask="url(#SVGID_26_)" fill="url(#SVGID_27_)" points="200.708,233.044 208.336,242.872 201.916,255.682 
				204.88,255.455 216.354,232.526 213.897,230.844 209.629,240.674 203.552,231.621 			"/>
		</g>
	</mask>
	<linearGradient id="SVGID_28_" gradientUnits="userSpaceOnUse" x1="111.6475" y1="251.4731" x2="256.484" y2="239.0586">
		<stop  offset="0.0161" style="stop-color:#000F5C"/>
		<stop  offset="1" style="stop-color:#B8DCFF"/>
	</linearGradient>
	<polygon fill="url(#SVGID_28_)" points="200.708,233.044 208.336,242.872 201.916,255.682 204.88,255.455 216.354,232.526 
		213.897,230.844 209.629,240.674 203.552,231.621 	"/>
</g>
</svg>
