<?xml version="1.0" encoding="utf-8"?>
<!-- Generator: Adobe Illustrator 16.0.0, SVG Export Plug-In . SVG Version: 6.00 Build 0)  -->
<!DOCTYPE svg PUBLIC "-//W3C//DTD SVG 1.1//EN" "http://www.w3.org/Graphics/SVG/1.1/DTD/svg11.dtd">
<svg version="1.1" id="Capa_1" xmlns="http://www.w3.org/2000/svg" xmlns:xlink="http://www.w3.org/1999/xlink" x="0px" y="0px"
	 width="64px" height="64px" viewBox="0 0 64 64" enable-background="new 0 0 64 64" xml:space="preserve">
<g>
	<g>
		<path fill-rule="evenodd" clip-rule="evenodd" fill="#0067F4" d="M31.57,47.12c1.345,0,2.691,0.021,4.036-0.012
			c0.48-0.011,0.965-0.124,1.438-0.233c0.839-0.192,1.428-0.703,1.704-1.523c0.201-0.587,0.383-1.187,0.514-1.793
			c0.381-1.774,1.182-3.358,2.115-4.893c1.03-1.69,2.286-3.205,3.565-4.705c1.095-1.281,2.113-2.613,2.886-4.12
			c0.932-1.815,1.536-3.732,1.804-5.755c0.455-3.447-0.054-6.749-1.532-9.888c-1.311-2.782-3.233-5.05-5.841-6.707
			c-1.471-0.936-3.069-1.6-4.75-2.061c-1.737-0.477-3.507-0.74-5.31-0.792c-2.182-0.061-4.327,0.176-6.428,0.768
			c-2.754,0.775-5.216,2.086-7.288,4.078c-1.389,1.335-2.482,2.89-3.298,4.638c-0.874,1.871-1.39,3.838-1.645,5.879
			c-0.21,1.671-0.205,3.338,0.043,5.002c0.33,2.219,1.095,4.277,2.278,6.18c0.867,1.393,1.929,2.639,2.931,3.931
			c1.106,1.422,2.243,2.826,3.265,4.309c1.271,1.846,2.105,3.898,2.517,6.111c0.238,1.28,0.312,2.564,0.224,3.861
			c-0.045,0.654-0.066,1.308,0.165,1.94c0.339,0.933,1.055,1.466,1.937,1.806c1.047,0.403,2.139,0.622,3.253,0.742
			c1.018,0.11,2.036,0.11,3.053,0.034c1.34-0.102,2.666-0.321,3.979-0.609c1.184-0.262,2.377-0.486,3.517-0.923
			c0.301-0.114,0.368-0.048,0.38,0.284c0.028,0.851,0.061,1.702,0.089,2.553c0.005,0.091-0.001,0.183-0.009,0.272
			c-0.046,0.55-0.346,0.875-0.88,0.986c-1.32,0.274-2.639,0.558-3.959,0.821c-1.442,0.286-2.9,0.427-4.369,0.442
			c-2.284,0.024-4.51-0.308-6.669-1.068c-0.902-0.317-1.758-0.718-2.502-1.331c-1.325-1.094-1.899-2.519-1.802-4.213
			c0.076-1.308,0.132-2.611-0.055-3.914c-0.33-2.292-1.195-4.369-2.459-6.296c-0.881-1.343-1.955-2.524-3.024-3.712
			c-2.369-2.633-4.197-5.583-5.242-8.988c-0.755-2.463-1.039-4.98-0.858-7.549c0.215-3.061,0.891-6.01,2.238-8.783
			c1.926-3.961,4.859-6.953,8.751-9.005c2.529-1.333,5.228-2.124,8.057-2.492c2.136-0.278,4.276-0.333,6.42-0.127
			c4.155,0.402,7.987,1.703,11.363,4.202c3.427,2.537,5.794,5.86,7.191,9.879c0.666,1.918,1.068,3.896,1.251,5.918
			c0.258,2.895,0.044,5.74-0.821,8.525c-0.843,2.709-2.225,5.118-4.026,7.3c-1.214,1.474-2.414,2.961-3.591,4.464
			c-0.821,1.048-1.502,2.185-1.81,3.498c-0.123,0.537-0.187,1.092-0.23,1.643c-0.16,2.008-1.116,3.54-2.767,4.648
			c-1.08,0.729-2.291,1.186-3.53,1.565c-2.3,0.704-4.652,0.908-7.037,0.645c-1.018-0.113-2.028-0.306-3.031-0.514
			c-0.598-0.125-1.118-0.439-1.482-0.957c-0.437-0.624-0.467-1.32-0.253-2.01c0.167-0.54,0.413-1.062,0.665-1.567
			c0.169-0.345,0.525-0.457,0.885-0.476c0.577-0.028,1.156-0.048,1.733-0.037c0.752,0.018,1.504,0.068,2.255,0.104
			C31.57,47.105,31.57,47.113,31.57,47.12z"/>
		<path fill-rule="evenodd" clip-rule="evenodd" fill="#0067F4" d="M24.942,39.079c-0.403-6.577-0.806-13.132-1.21-19.72
			c-1.331,0.082-2.652,0.16-3.994,0.242c-0.147-2.394-0.292-4.76-0.441-7.176c7.231-0.414,14.446-0.824,21.683-1.237
			c0.028,0.538,0.056,1.027,0.083,1.539c0.512-0.058,1.006-0.114,1.536-0.175c0.097,1.562,0.192,3.112,0.289,4.7
			c-1.302,0.083-2.593,0.164-3.9,0.245c0.412,6.729,0.824,13.435,1.236,20.179c-1.702,0.106-3.39,0.211-5.112,0.317
			c-0.403-6.578-0.807-13.144-1.211-19.722c-1.32,0.08-2.615,0.16-3.932,0.242c0.023,0.407,0.041,0.785,0.065,1.163
			c0.131,2.118,0.265,4.235,0.395,6.352c0.128,2.086,0.251,4.174,0.379,6.262c0.116,1.874,0.233,3.748,0.35,5.623
			c0.012,0.196,0.015,0.395,0.036,0.592c0.016,0.145-0.027,0.2-0.181,0.21c-1.336,0.074-2.671,0.156-4.007,0.237
			C26.331,38.991,25.656,39.034,24.942,39.079z"/>
		<path fill-rule="evenodd" clip-rule="evenodd" fill="#0067F4" d="M22.554,57.977c6.517,1.577,12.894,1.39,19.191-1.027
			c0,1.865,0,3.653,0,5.451c-1.473,0.431-2.963,0.814-4.488,1.063c-1.67,0.273-3.351,0.409-5.042,0.393
			c-2.927-0.025-5.778-0.51-8.55-1.45c-0.579-0.196-1.102-0.509-1.188-1.164c-0.059-0.448,0.01-0.923,0.08-1.377
			C22.649,59.255,22.771,58.65,22.554,57.977z"/>
	</g>
</g>
</svg>
